<svg width="128" height="128" viewBox="0 0 128 128" fill="none" xmlns="http://www.w3.org/2000/svg">
<path d="M24 20C15.1634 20 8 27.1634 8 36V40H120V36C120 27.1634 112.837 20 104 20H24Z" fill="white"/>
<path fill-rule="evenodd" clip-rule="evenodd" d="M120 52H8V92C8 100.837 15.1634 108 24 108H104C112.837 108 120 100.837 120 92V52ZM24 72C24 69.7909 25.7909 68 28 68H60C62.2091 68 64 69.7909 64 72C64 74.2091 62.2091 76 60 76H28C25.7909 76 24 74.2091 24 72ZM28 84C25.7909 84 24 85.7909 24 88C24 90.2091 25.7909 92 28 92H44C46.2091 92 48 90.2091 48 88C48 85.7909 46.2091 84 44 84H28Z" fill="white"/>
</svg>
