<svg width="252" height="46" viewBox="0 0 252 46" fill="none" xmlns="http://www.w3.org/2000/svg">
<path d="M251.707 8.70711C252.098 8.31658 252.098 7.68342 251.707 7.29289L245.343 0.928932C244.953 0.538408 244.319 0.538408 243.929 0.928932C243.538 1.31946 243.538 1.95262 243.929 2.34315L249.586 8L243.929 13.6569C243.538 14.0474 243.538 14.6805 243.929 15.0711C244.319 15.4616 244.953 15.4616 245.343 15.0711L251.707 8.70711ZM6 9L251 9V7L6 7V9Z" fill="#1E1E1E"/>
<path d="M0.292892 37.2929C-0.0976257 37.6834 -0.0976257 38.3166 0.292892 38.7071L6.65686 45.0711C7.04738 45.4616 7.68054 45.4616 8.07108 45.0711C8.46159 44.6805 8.46159 44.0474 8.07108 43.6569L2.41422 38L8.07108 32.3431C8.46159 31.9526 8.46159 31.3195 8.07108 30.9289C7.68054 30.5384 7.04738 30.5384 6.65686 30.9289L0.292892 37.2929ZM246 37L1 37V39L246 39V37Z" fill="#1E1E1E"/>
</svg>
