<svg width="85" height="85" viewBox="0 0 85 85" fill="none" xmlns="http://www.w3.org/2000/svg">
<path d="M20.2043 35H14.2725L23.3108 8.81818H30.4443L39.4699 35H33.5381L26.9799 14.8011H26.7753L20.2043 35ZM19.8336 24.7088H33.8449V29.0298H19.8336V24.7088ZM41.5412 35V8.81818H51.8707C53.8565 8.81818 55.5483 9.19744 56.946 9.95597C58.3438 10.706 59.4091 11.75 60.142 13.0881C60.8835 14.4176 61.2543 15.9517 61.2543 17.6903C61.2543 19.429 60.8793 20.9631 60.1293 22.2926C59.3793 23.6222 58.2926 24.6577 56.8693 25.3991C55.4545 26.1406 53.7415 26.5114 51.7301 26.5114H45.1463V22.0753H50.8352C51.9006 22.0753 52.7784 21.892 53.4688 21.5256C54.1676 21.1506 54.6875 20.6349 55.0284 19.9787C55.3778 19.3139 55.5526 18.5511 55.5526 17.6903C55.5526 16.821 55.3778 16.0625 55.0284 15.4148C54.6875 14.7585 54.1676 14.2514 53.4688 13.8935C52.7699 13.527 51.8835 13.3438 50.8097 13.3438H47.0767V35H41.5412ZM69.3053 8.81818V35H63.7698V8.81818H69.3053Z" fill="#454545"/>
<path d="M32.5 67.5C31.5375 67.5 30.7135 67.1573 30.0281 66.4719C29.3427 65.7865 29 64.9625 29 64C29 63.0375 29.3427 62.2135 30.0281 61.5281C30.7135 60.8427 31.5375 60.5 32.5 60.5C33.4625 60.5 34.2865 60.8427 34.9719 61.5281C35.6573 62.2135 36 63.0375 36 64C36 64.9625 35.6573 65.7865 34.9719 66.4719C34.2865 67.1573 33.4625 67.5 32.5 67.5ZM43 67.5C42.0375 67.5 41.2135 67.1573 40.5281 66.4719C39.8427 65.7865 39.5 64.9625 39.5 64C39.5 63.0375 39.8427 62.2135 40.5281 61.5281C41.2135 60.8427 42.0375 60.5 43 60.5C43.9625 60.5 44.7865 60.8427 45.4719 61.5281C46.1573 62.2135 46.5 63.0375 46.5 64C46.5 64.9625 46.1573 65.7865 45.4719 66.4719C44.7865 67.1573 43.9625 67.5 43 67.5ZM53.5 67.5C52.5375 67.5 51.7135 67.1573 51.0281 66.4719C50.3427 65.7865 50 64.9625 50 64C50 63.0375 50.3427 62.2135 51.0281 61.5281C51.7135 60.8427 52.5375 60.5 53.5 60.5C54.4625 60.5 55.2865 60.8427 55.9719 61.5281C56.6573 62.2135 57 63.0375 57 64C57 64.9625 56.6573 65.7865 55.9719 66.4719C55.2865 67.1573 54.4625 67.5 53.5 67.5Z" fill="#404040"/>
</svg>
