<svg width="68" height="80" viewBox="0 0 68 80" fill="none" xmlns="http://www.w3.org/2000/svg">
<path d="M34 79H10.1126C5.97179 79 3.62559 74.2547 6.13956 70.9644L17 56.75L25.5 45.625C28.2566 42.0171 29.75 37.6027 29.75 33.0622V1H38.25V33.0622C38.25 37.6027 39.7434 42.0171 42.5 45.625L51 56.75L61.8604 70.9644C64.3744 74.2547 62.0282 79 57.8874 79H34Z" fill="#1E1E1E" stroke="#1E1E1E"/>
<path d="M20 52.5L22.1302 53.3521C24.0339 54.1136 26.0353 54.6035 28.0755 54.8075L28.5258 54.8526C29.5067 54.9507 30.4943 54.962 31.4772 54.8864L34.3851 54.6627C35.7645 54.5566 37.0823 54.0471 38.1743 53.1978V53.1978C39.9503 51.8165 42.2787 51.3653 44.442 51.9834L48 53" stroke="#1E1E1E"/>
</svg>
