<svg width="601" height="153" viewBox="0 0 601 153" fill="none" xmlns="http://www.w3.org/2000/svg">
<path d="M109.9 3.7C50.6 3.7 2.5 34.5 2.5 72.4C2.5 110.3 50.6 144.1 109.9 144.1C169.2 144.1 217.3 110.4 217.3 72.4C217.3 34.4 169.2 3.7 109.9 3.7Z" fill="#00BCFF"/>
<path d="M74.8999 51.2C74.7999 51.3 73.7999 52.4 74.4999 53.3C76.1999 55.4 81.2999 56.6 86.4999 55.5C89.5999 54.8 93.4999 51.7 97.3999 48.6C101.6 45.3 105.7 42 109.8 40.7C114.2 39.3 117 39.9 118.9 40.5C120.9 41.1 123.3 42.5 127.2 45.3C134.4 50.7 163.3 76 168.4 80.3C172.4 78.5 191.6 70.7 215.9 65.4C213.8 52.4 206 40.1 194 30.4C177.3 37.4 155.6 41.6 135.6 31.9C135.5 31.9 124.7 26.8 114.1 27C98.2999 27.4 91.3999 34.2 84.1999 41.5L74.8999 51.2Z" fill="white"/>
<path d="M167.1 83C166.8 82.7 133.1 53.2 125.4 47.5C121 44.2 118.5 43.3 115.9 43C114.6 42.8 112.7 43.1 111.4 43.4C107.8 44.4 103.2 47.5 99.0999 50.7C94.7999 54.1 90.7999 57.3 87.0999 58.1C82.2999 59.2 76.4999 57.9 73.7999 56.1C72.6999 55.4 71.9999 54.5 71.5999 53.7C70.5999 51.4 72.3999 49.6 72.6999 49.3L81.9999 39.2C83.0999 38.1 84.1999 37 85.2999 36C82.2999 36.4 79.4999 37.2 76.7999 37.9C73.3999 38.8 70.1999 39.7 66.8999 39.7C65.4999 39.7 58.1999 38.5 56.7999 38.1C48.3999 35.8 38.7999 33.6 27.7999 28.4C14.5999 38.2 5.9999 50.3 3.3999 63.9C5.2999 64.4 10.2999 65.5 11.5999 65.8C41.4999 72.5 50.7999 79.3 52.4999 80.7C54.2999 78.7 56.9999 77.4 59.8999 77.4C63.1999 77.4 66.1999 79.1 67.9999 81.6C69.6999 80.2 72.0999 79.1 75.0999 79.1C76.4999 79.1 77.8999 79.4 79.3999 79.8C82.7999 81 84.4999 83.2 85.3999 85.2C86.4999 84.7 87.8999 84.3 89.5999 84.3C91.1999 84.3 92.8999 84.7 94.5999 85.4C100.1 87.8 101 93.2 100.5 97.3C100.9 97.3 101.3 97.2 101.7 97.2C108.2 97.2 113.6 102.5 113.6 109.1C113.6 111.1 113.1 113 112.2 114.7C114 115.7 118.5 118 122.5 117.5C125.7 117.1 126.9 116 127.3 115.4C127.6 115 127.9 114.5 127.6 114.1L119.2 104.7C119.2 104.7 117.8 103.4 118.3 102.9C118.8 102.4 119.6 103.1 120.2 103.6C124.5 107.2 129.7 112.6 129.7 112.6C129.8 112.7 130.1 113.3 132.1 113.7C133.8 114 136.7 113.8 138.8 112.1C139.3 111.7 139.8 111.1 140.3 110.6L140.2 110.7C142.4 107.9 140 105.1 140 105.1L130.1 94C130.1 94 128.7 92.7 129.2 92.2C129.6 91.7 130.5 92.4 131.2 92.9C134.3 95.5 138.7 99.9 143 104.1C143.8 104.7 147.5 107 152.5 103.8C155.5 101.8 156.1 99.4 156 97.6C155.8 95.2 153.9 93.5 153.9 93.5L140.4 80C140.4 80 139 78.8 139.5 78.2C139.9 77.7 140.8 78.4 141.4 78.9C145.7 82.5 157.3 93.1 157.3 93.1C157.5 93.2 161.5 96.1 166.4 92.9C168.2 91.8 169.3 90.1 169.4 88.1C169.5 85 167.1 83 167.1 83Z" fill="white"/>
<path d="M101.8 100.1C99.6998 100.1 97.3998 101.3 97.0998 101.1C96.8998 101 97.1998 100.2 97.3998 99.7C97.5998 99.2 100.3 91 93.6998 88.1C88.5998 85.9 85.3998 88.4 84.3998 89.5C84.0998 89.8 83.9998 89.8 83.9998 89.4C83.8998 87.9 83.1998 83.9 78.7998 82.5C72.4998 80.6 68.3998 85 67.3998 86.6C66.8998 83 63.8998 80.2 60.1998 80.2C56.0998 80.2 52.8998 83.5 52.7998 87.5C52.7998 91.6 56.0998 94.8 60.0998 94.8C62.0998 94.8 63.8998 94 65.1998 92.8C65.1998 92.8 65.2998 92.9 65.1998 93C64.8998 94.8 64.2998 101.4 71.1998 104.1C73.9998 105.2 76.2998 104.4 78.2998 103C78.8998 102.6 78.9998 102.8 78.8998 103.3C78.5998 105 78.9998 108.6 84.0998 110.7C87.9998 112.3 90.2998 110.7 91.7998 109.3C92.4998 108.7 92.5998 108.8 92.6998 109.7C92.8998 114.6 96.9998 118.5 101.9 118.5C107 118.5 111.1 114.4 111.1 109.3C111 104.3 106.9 100.2 101.8 100.1Z" fill="white"/>
<path d="M109.9 0.899994C49.5 0.899994 0.5 33 0.5 72.5C0.5 73.5 0.5 76.3 0.5 76.7C0.5 118.5 43.3 152.4 109.9 152.4C176.5 152.4 219.3 118.5 219.3 76.7V72.5C219.3 33 170.3 0.899994 109.9 0.899994ZM214.3 64.5C190.5 69.8 172.8 77.5 168.3 79.4C157.9 70.3 133.9 49.5 127.4 44.6C123.7 41.8 121.2 40.3 118.9 39.7C117.9 39.4 116.5 39.1 114.7 39.1C113 39.1 111.3 39.4 109.4 40C105.2 41.3 101 44.7 97 47.9V48C93.2 51 89.3 54.1 86.4 54.8C85.1 55.1 83.8 55.2 82.5 55.2C79.2 55.2 76.2 54.2 75.1 52.8C74.9 52.6 75 52.2 75.5 51.6L75.6 51.5L84.7 41.7C91.9 34.5 98.6 27.8 114.2 27.4C114.5 27.4 114.7 27.4 115 27.4C124.7 27.4 134.4 31.7 135.4 32.2C144.5 36.6 153.8 38.9 163.3 38.9C173.1 38.9 183.2 36.5 193.8 31.6C204.7 41 212.1 52.3 214.3 64.5ZM109.9 5.10001C142 5.10001 170.7 14.3 190 28.8C180.7 32.8 171.8 34.9 163.2 34.9C154.4 34.9 145.6 32.8 137.1 28.6C136.7 28.4 126 23.3 114.8 23.3C114.5 23.3 114.2 23.3 113.9 23.3C100.8 23.6 93.5 28.2 88.5 32.3C83.7 32.4 79.5 33.6 75.8 34.6C72.5 35.5 69.7 36.3 66.9 36.3C65.8 36.3 63.7 36.2 63.5 36.2C60.3 36.1 44.3 32.2 31.5 27.4C50.9 13.7 78.8 5.10001 109.9 5.10001ZM27.9 30.2C41.2 35.7 57.4 39.9 62.6 40.2C64 40.3 65.5 40.5 67.1 40.5C70.5 40.5 73.9 39.5 77.2 38.6C79.1 38.1 81.3 37.5 83.5 37C82.9 37.6 82.3 38.2 81.7 38.8L72.4 48.8C71.7 49.5 70.1 51.5 71.1 53.9C71.5 54.9 72.4 55.8 73.5 56.6C75.7 58.1 79.7 59.1 83.3 59.1C84.7 59.1 86 59 87.2 58.7C91.1 57.8 95.2 54.6 99.5 51.1C102.9 48.4 107.8 44.9 111.6 43.9C112.7 43.6 113.9 43.4 115 43.4C115.3 43.4 115.6 43.4 115.9 43.5C118.4 43.8 120.8 44.7 125 47.9C132.6 53.6 166.3 83.1 166.6 83.4C166.6 83.4 168.8 85.3 168.6 88.4C168.5 90.1 167.6 91.6 165.9 92.7C164.5 93.6 163 94.1 161.5 94.1C159.2 94.1 157.7 93 157.6 93C157.5 92.9 145.9 82.3 141.7 78.7C141 78.1 140.4 77.6 139.7 77.6C139.3 77.6 139 77.8 138.8 78C138.1 78.8 138.9 80 139.8 80.7L153.3 94.3C153.3 94.3 155 95.9 155.2 98C155.3 100.2 154.2 102.1 152 103.6C150.4 104.7 148.8 105.2 147.2 105.2C145.1 105.2 143.7 104.3 143.4 104L141.5 102.1C138 98.6 134.3 95 131.6 92.8C130.9 92.3 130.3 91.8 129.6 91.8C129.3 91.8 129 91.9 128.7 92.2C128.4 92.5 128.2 93.1 128.9 94.2C129.2 94.6 129.6 95 129.6 95L139.4 106.1C139.5 106.2 141.4 108.5 139.6 110.8L139.2 111.2C138.9 111.5 138.6 111.8 138.3 112.1C136.6 113.5 134.4 113.6 133.5 113.6C133 113.6 132.6 113.6 132.2 113.5C131.2 113.3 130.6 113.1 130.3 112.7L130.2 112.6C129.7 112 124.7 107 120.6 103.6C120.1 103.1 119.4 102.6 118.7 102.6C118.4 102.6 118.1 102.7 117.8 103C117 103.9 118.2 105.2 118.7 105.7L127.1 115C127.1 115.1 127 115.3 126.8 115.6C126.5 116 125.5 117 122.4 117.4C122 117.4 121.7 117.5 121.3 117.5C118.2 117.5 114.8 116 113.1 115.1C113.9 113.4 114.3 111.6 114.3 109.8C114.3 102.9 108.7 97.3 101.8 97.3C101.7 97.3 101.5 97.3 101.4 97.3C101.6 94.1 101.2 88.2 95 85.5C93.2 84.7 91.5 84.3 89.8 84.3C88.5 84.3 87.2 84.5 86 85C84.7 82.5 82.6 80.7 79.9 79.8C78.4 79.3 76.9 79 75.4 79C72.8 79 70.5 79.8 68.4 81.2C66.4 78.7 63.4 77.2 60.2 77.2C57.4 77.2 54.7 78.3 52.7 80.3C50.1 78.3 39.7 71.7 12 65.4C10.7 65.1 7.7 64.2 5.8 63.7C8.2 51 16.1 39.6 27.9 30.2ZM79.3 102.5L79 102.2H78.7C78.5 102.2 78.2 102.3 77.9 102.5C76.5 103.5 75.1 104 73.8 104C73 104 72.3 103.8 71.5 103.6C65.1 101.1 65.6 95 65.9 93.2C65.9 92.8 65.9 92.5 65.6 92.3L65.1 91.9L64.7 92.3C63.4 93.5 61.8 94.2 60.1 94.2C56.4 94.2 53.4 91.2 53.4 87.5C53.4 83.8 56.4 80.8 60.1 80.8C63.4 80.8 66.3 83.3 66.7 86.6L66.9 88.4L67.9 86.9C68 86.7 70.7 82.6 75.7 82.6C76.6 82.6 77.6 82.8 78.6 83.1C82.6 84.3 83.2 87.9 83.3 89.4C83.4 90.3 84 90.3 84.1 90.3C84.4 90.3 84.7 90.1 84.9 89.9C85.6 89.1 87.3 87.8 89.8 87.8C91 87.8 92.2 88.1 93.5 88.6C99.8 91.3 96.9 99.3 96.9 99.4C96.4 100.7 96.3 101.3 96.8 101.6L97 101.7H97.2C97.5 101.7 97.8 101.6 98.4 101.4C99.3 101.1 100.5 100.7 101.8 100.7C106.5 100.8 110.4 104.6 110.4 109.3C110.4 114 106.5 117.9 101.8 117.9C97.2 117.9 93.4 114.3 93.2 109.7C93.2 109.3 93.1 108.3 92.3 108.3C91.9 108.3 91.6 108.5 91.3 108.8C90.3 109.7 89 110.7 87.1 110.7C86.2 110.7 85.3 110.5 84.3 110.1C79.4 108.1 79.3 104.8 79.5 103.4C79.5 103.1 79.6 102.8 79.3 102.5ZM109.9 139.7C51.8 139.7 4.7 109.6 4.7 72.4C4.7 70.9 4.8 69.4 5 67.9C5.5 68 10.1 69.1 11 69.3C39.3 75.6 48.7 82.1 50.3 83.4C49.8 84.7 49.5 86.1 49.5 87.5C49.5 93.4 54.3 98.1 60.1 98.1C60.8 98.1 61.4 98 62.1 97.9C63 102.2 65.8 105.5 70.1 107.2C71.4 107.7 72.6 107.9 73.9 107.9C74.7 107.9 75.5 107.8 76.3 107.6C77.1 109.6 78.9 112.1 82.9 113.8C84.3 114.4 85.7 114.7 87.1 114.7C88.2 114.7 89.3 114.5 90.3 114.1C92.2 118.8 96.8 121.9 101.9 121.9C105.3 121.9 108.5 120.5 110.9 118.1C112.9 119.2 117.2 121.3 121.5 121.3C122.1 121.3 122.6 121.3 123.1 121.2C127.4 120.7 129.4 119 130.3 117.7C130.5 117.5 130.6 117.2 130.7 117C131.7 117.3 132.8 117.5 134.1 117.5C136.4 117.5 138.7 116.7 141 115.1C143.2 113.5 144.8 111.2 145 109.2V109.1C145.8 109.3 146.5 109.3 147.3 109.3C149.7 109.3 152.1 108.6 154.3 107.1C158.7 104.2 159.4 100.5 159.4 98.1C160.2 98.3 160.9 98.3 161.7 98.3C164 98.3 166.2 97.6 168.3 96.3C171 94.6 172.6 91.9 172.9 88.8C173.1 86.7 172.5 84.6 171.4 82.8C178.7 79.7 195.4 73.6 215 69.1C215.1 70.2 215.1 71.3 215.1 72.5C215.1 109.6 168 139.7 109.9 139.7Z" fill="#0A0080"/>
<path d="M594.4 22.9C590.4 17.9 584.4 15.4 576.3 15.4C568.2 15.4 562.2 17.9 558.2 22.9C554.2 27.9 552.2 33.8 552.2 40.5C552.2 47.3 554.2 53.3 558.2 58.2C562.2 63.1 568.2 65.6 576.3 65.6C584.4 65.6 590.4 63.1 594.4 58.2C598.4 53.3 600.4 47.4 600.4 40.5C600.4 33.6 598.4 27.9 594.4 22.9ZM584.6 51.5C582.7 54.1 579.9 55.3 576.3 55.3C572.7 55.3 569.9 54 568 51.5C566.1 48.9 565.1 45.3 565.1 40.6C565.1 35.9 566.1 32.3 568 29.7C569.9 27.2 572.7 25.9 576.3 25.9C579.9 25.9 582.7 27.2 584.6 29.7C586.5 32.2 587.5 35.9 587.5 40.6C587.5 45.3 586.5 48.9 584.6 51.5ZM492.9 18.7C488.9 16.7 484.3 15.6 479.1 15.6C471.1 15.6 465.5 17.7 462.2 21.8C460.1 24.5 459 27.9 458.7 32H470.6C470.9 30.2 471.5 28.7 472.4 27.7C473.6 26.3 475.7 25.5 478.7 25.5C481.3 25.5 483.3 25.9 484.7 26.6C486.1 27.3 486.7 28.7 486.7 30.6C486.7 32.2 485.8 33.4 484 34.1C483 34.5 481.4 34.9 479.1 35.2L474.9 35.7C470.1 36.3 466.5 37.3 464 38.7C459.5 41.3 457.2 45.5 457.2 51.3C457.2 55.8 458.6 59.2 461.4 61.7C464.2 64.1 467.8 65.2 472.1 65.4C499.1 66.6 498.8 51.2 499 48V30.3C498.9 24.7 496.9 20.8 492.9 18.7ZM486.6 45.6C486.5 49.7 485.3 52.6 483.1 54.1C480.8 55.7 478.3 56.4 475.6 56.4C473.9 56.4 472.4 55.9 471.3 55C470.1 54.1 469.5 52.5 469.5 50.4C469.5 48 470.5 46.3 472.4 45.2C473.6 44.5 475.4 44 478.1 43.5L480.9 43C482.3 42.7 483.4 42.4 484.2 42.1C485 41.8 485.8 41.4 486.6 40.9V45.6ZM431.4 26.2C434.5 26.2 436.7 27.2 438.2 29.1C439.2 30.5 439.8 32.1 440.1 33.9H453.4C452.7 27.2 450.3 22.5 446.4 19.9C442.4 17.3 437.3 15.9 431.1 15.9C423.8 15.9 418 18.1 413.9 22.6C409.7 27.1 407.7 33.4 407.7 41.5C407.7 48.6 409.6 54.5 413.4 59C417.2 63.5 423 65.7 431 65.7C439 65.7 445 63 449.1 57.6C451.7 54.3 453.1 50.7 453.4 47H440C439.7 49.5 439 51.5 437.7 53.1C436.4 54.6 434.3 55.4 431.2 55.4C426.9 55.4 424 53.4 422.4 49.5C421.5 47.4 421.1 44.6 421.1 41.2C421.1 37.8 421.5 34.7 422.4 32.5C424 28.3 427 26.2 431.4 26.2ZM404 15.8C376.7 15.8 378.3 40 378.3 40V64.6H390.7V41.6C390.7 37.8 391.2 35 392.1 33.2C393.8 30 397.1 28.4 402.1 28.4C402.5 28.4 403 28.4 403.6 28.5C404.2 28.5 404.9 28.6 405.7 28.7V16.1C405.2 16.1 404.8 16 404.6 16C404.4 15.8 404.2 15.8 404 15.8ZM368.4 25C366.3 21.8 363.5 19.5 360.3 18C357 16.5 353.3 15.8 349.2 15.8C342.3 15.8 336.7 18 332.4 22.3C328.1 26.7 325.9 32.9 325.9 41.1C325.9 49.8 328.3 56.1 333.1 60C337.9 63.9 343.4 65.8 349.7 65.8C357.3 65.8 363.2 63.5 367.4 58.9C369.7 56.5 371.1 54.1 371.7 51.8H358.5C358 52.5 357.4 53.2 356.8 53.7C355 55.1 352.7 55.6 349.9 55.6C347.3 55.6 345.2 55.2 343.3 54C340.2 52.1 338.5 48.9 338.3 44.2H372.6C372.6 40.1 372.5 37 372.2 34.8C371.6 31 370.3 27.8 368.4 25ZM338.5 35.9C338.9 32.8 340 30.4 341.8 28.6C343.5 26.8 346 25.9 349.2 25.9C352.1 25.9 354.5 26.7 356.5 28.4C358.5 30.1 359.5 32.6 359.8 35.8H338.5V35.9ZM301.2 15.6C295.4 15.6 290.5 18.1 287.1 22.2C283.9 18.2 279 15.6 273 15.6C260.9 15.6 253.1 24.5 253.1 36.3V64.5H264.4V36C264.4 30.8 267.9 27.2 273 27.2C280.5 27.2 281.2 33.4 281.2 36V64.5H292.5V36C292.5 30.8 296.1 27.2 301.1 27.2C308.6 27.2 309.4 33.4 309.4 36V64.5H320.7V36.3C320.9 24.2 313.6 15.6 301.2 15.6ZM536.1 9.6V22.9C534.7 20.7 532.9 18.9 530.7 17.7C528.5 16.5 526 15.8 523.1 15.8C516.9 15.8 512 18.1 508.3 22.7C504.6 27.3 502.7 34 502.7 42C502.7 49 504.6 54.7 508.3 59.1C512.1 63.5 519.4 65.5 526 65.5C548.8 65.5 548.6 45.9 548.6 45.9V0.899988C548.6 0.899988 536.1 -0.400001 536.1 9.6ZM533.7 51.6C531.9 54.2 529.2 55.5 525.8 55.5C522.4 55.5 519.7 54.2 518 51.6C516.3 49 515.4 45.2 515.4 40.8C515.4 36.8 516.2 33.4 517.9 30.7C519.6 28 522.2 26.6 525.8 26.6C528.2 26.6 530.2 27.3 532 28.8C534.9 31.3 536.4 35.7 536.4 41.5C536.5 45.6 535.5 49 533.7 51.6ZM279.3 83.5C269.1 83 263.9 85.5 260.6 88C256 91.5 253.1 96.8 253.1 105.2V148.3H259.1C260.7 148.3 262.3 147.7 263.5 146.7C264.8 145.5 265.5 144 265.5 142.2V126C267 128.5 268.9 130.4 271.3 131.6C273.6 132.7 276.3 133.2 279.3 133.2C285 133.2 289.7 130.9 293.3 126.4C296.9 121.7 298.8 115.6 298.8 108.1C298.8 100.5 297.1 95.2 292.9 90.1C289.7 86 284.6 83.7 279.3 83.5ZM283.6 118.8C281.8 121.3 279.3 122.6 276.1 122.6C272.7 122.6 270.1 121.4 268.3 118.8C266.5 116.5 265.6 113.1 265.6 108.6C265.6 103.7 266.4 100.1 268.1 97.8C269.9 95.3 272.5 94 275.8 94C279.1 94 281.8 95.3 283.6 97.8C285.4 100.3 286.3 103.9 286.3 108.6C286.3 112.9 285.4 116.3 283.6 118.8ZM385.8 87.9C381.6 84.7 377.3 83 369.9 83.2C362.4 83.4 356.9 85.5 353.5 90.1C350.1 94.7 348.4 100.7 348.4 108.1C348.4 114.4 349.7 119.6 352.2 123.5C354.8 127.4 357.8 130.1 361.4 131.5C365 132.9 368.6 133.2 372.2 132.4C375.8 131.6 378.7 129.5 380.9 126.1V129.1C380.7 132.9 379.7 135.8 378.1 137.7C376.5 139.6 374.7 140.8 372.7 141.2C370.7 141.6 368.8 141.4 366.8 140.5C364.8 139.6 363.4 138.3 362.4 136.6H349.3C352.7 146.8 358.8 151.3 369.7 152C387.3 153.3 393 138.3 393 130.3V105C393.2 96.8 390.4 91.4 385.8 87.9ZM380.6 112.8C380.1 115.6 379.4 117.7 378.3 119C376 122.1 372.5 123.2 367.8 122.3C363 121.4 360.6 116.8 360.6 108.6C360.6 104.8 361.3 101.4 362.7 98.4C364.1 95.4 366.9 93.9 370.9 93.9C373.9 93.9 376.2 95 377.7 97.1C379.3 99.3 380.2 101.7 380.7 104.5C381.1 107.2 381.1 110 380.6 112.8ZM337.8 86.7C333.8 84.7 329.2 83.6 324 83.6C316 83.6 310.4 85.7 307.1 89.8C305 92.5 303.9 95.9 303.6 100H315.5C315.8 98.2 316.4 96.7 317.3 95.7C318.5 94.3 320.6 93.5 323.6 93.5C326.2 93.5 328.2 93.9 329.6 94.6C331 95.3 331.6 96.7 331.6 98.6C331.6 100.2 330.7 101.4 328.9 102.1C327.9 102.5 326.3 102.9 324 103.2L319.8 103.7C315 104.3 311.3 105.3 308.9 106.7C304.4 109.3 302.1 113.5 302.1 119.3C302.1 123.8 303.5 127.2 306.3 129.7C309.1 132.1 312.7 133.2 317 133.4C343.9 134.6 343.6 119.2 343.9 116V98.3C343.9 92.6 341.9 88.7 337.8 86.7ZM331.5 113.6C331.4 117.7 330.2 120.6 328 122.1C325.7 123.7 323.2 124.4 320.5 124.4C318.8 124.4 317.4 123.9 316.2 123C315 122.1 314.4 120.5 314.4 118.4C314.4 116 315.4 114.3 317.3 113.2C318.5 112.5 320.3 112 323 111.5L325.8 111C327.2 110.7 328.3 110.5 329.1 110.1C329.9 109.8 330.7 109.4 331.5 108.9V113.6ZM440 90.6C436 85.6 430 83.1 421.9 83.1C413.8 83.1 407.8 85.6 403.8 90.6C399.8 95.6 397.8 101.5 397.8 108.2C397.8 114.9 399.8 121 403.8 125.9C407.8 130.8 413.8 133.2 421.9 133.2C430 133.2 436 130.7 440 125.9C444 121 446 115.1 446 108.2C446 101.3 444 95.6 440 90.6ZM430.2 119.1C428.3 121.7 425.5 122.9 421.9 122.9C418.3 122.9 415.5 121.6 413.6 119.1C411.6 116.5 410.7 112.9 410.7 108.2C410.7 103.5 411.7 99.9 413.6 97.3C415.5 94.8 418.3 93.5 421.9 93.5C425.5 93.5 428.3 94.8 430.2 97.3C432.1 99.8 433.1 103.5 433.1 108.2C433.1 113 432.1 116.6 430.2 119.1Z" fill="#0A0080"/>
</svg>
