<svg width="2500" height="758" viewBox="0 0 2500 758" fill="none" xmlns="http://www.w3.org/2000/svg">
<path d="M974.71 401.905H922.537L901.349 502.575H841.81L899.721 230.738H1011.79C1057.44 230.738 1088.4 262.941 1088.4 299.613C1088.4 372.571 1030.54 401.905 974.71 401.905ZM982.02 270.655H950.249L930.683 361.965H951.057C991.003 361.965 1027.67 353.005 1027.67 305.317C1027.67 283.703 1005.26 270.683 982.048 270.683L982.02 270.655ZM1286.49 430.021C1279.16 463.039 1277.1 487.074 1276.72 502.552H1219.25C1220.05 492.373 1223.74 473.218 1226.98 454.488C1212.32 480.982 1188.28 507.038 1148.31 507.038C1108.37 507.038 1086.37 479.736 1086.37 441.823C1086.37 350.142 1168.28 293.494 1246.14 293.494C1269.77 293.494 1300.35 297.553 1314.61 302.858L1286.46 430.05L1286.49 430.021ZM1235.54 331.413C1188.66 331.413 1145.88 381.121 1145.88 435.737C1145.88 454.084 1152.4 469.158 1173.59 469.158C1202.12 469.158 1229.42 430.027 1240.84 381.127L1251.85 333.844C1246.61 332.042 1241.08 331.218 1235.54 331.413ZM1512.67 475.272C1494.35 557.594 1464.18 595.075 1373.72 595.075C1346.38 595.075 1320.32 589.798 1302.81 583.684L1313.8 543.334C1333.37 553.911 1354.12 557.19 1372.5 557.19C1423.42 557.19 1442.99 530.287 1452.38 491.969L1458.88 465.071C1439.31 491.155 1418.93 502.575 1385.11 502.575C1343.16 502.575 1322.76 476.491 1322.76 441.851C1322.76 349.732 1406.73 293.904 1484.97 293.904C1507.4 293.904 1535.52 297.963 1551 302.858L1512.7 475.244L1512.67 475.272ZM1472.73 331.817C1425.89 331.817 1382.27 379.903 1382.27 436.949C1382.27 455.302 1388.78 468.749 1408.79 468.749C1447.08 468.749 1468.27 419.848 1476.82 383.558L1488.65 334.253C1483.49 332.65 1478.13 331.829 1472.73 331.817ZM1729.93 361.965C1759.26 368.484 1778.02 387.241 1778.02 415.761C1778.02 485.855 1711.18 502.575 1654.94 502.575H1554.27L1612.13 230.738H1720.97C1757.24 230.738 1796.37 247.434 1796.37 287.784C1796.37 328.134 1769.47 354.656 1729.93 361.965ZM1663.09 380.717H1637.38L1619.09 466.29H1647.18C1681.43 466.29 1716.89 455.707 1716.89 413.706C1716.89 385.186 1685.09 380.717 1663.09 380.717ZM1694.86 267H1661.03L1644.74 344.831H1673.7C1705.47 344.831 1736.45 332.603 1736.45 296.34C1736.45 273.524 1713.59 267 1694.86 267ZM2002.58 430.021C1995.27 463.039 1993.22 487.074 1992.81 502.552H1935.33C1936.14 492.373 1939.82 473.218 1943.07 454.488C1928.4 480.982 1904.37 507.038 1864.43 507.038C1824.48 507.038 1802.45 479.736 1802.45 441.823C1802.45 350.142 1884.4 293.494 1962.23 293.494C1985.88 293.494 2016.44 297.553 2030.7 302.858L2002.58 430.021ZM1951.65 331.413C1904.78 331.413 1861.99 381.121 1861.99 435.737C1861.99 454.084 1868.49 469.158 1889.71 469.158C1918.23 469.158 1945.53 430.027 1956.95 381.127L1967.94 333.844C1962.7 332.045 1957.18 331.222 1951.65 331.413ZM2247.95 367.265L2219.4 502.575H2163.17L2188.87 379.499C2190.5 372.166 2192.12 365.238 2192.12 358.282C2192.12 342.804 2184.76 331.817 2165.2 331.817C2134.62 331.817 2119.97 359.119 2114.26 385.613L2089.39 502.575H2032.75L2066.17 343.618C2069.42 328.544 2072.29 313.469 2073.92 297.963H2126.9L2120.79 334.225C2140.35 306.946 2160.73 293.904 2194.56 293.904C2228.39 293.904 2250.39 310.196 2250.39 344.022C2250.39 351.354 2249.57 359.125 2247.95 367.265ZM2395.49 390.89L2459.9 502.575H2395.49L2340.07 395.387L2318.04 502.552H2261.4L2323.37 208.713H2379.61L2343.34 382.34L2430.94 297.991H2497.38L2395.49 390.89ZM496.527 21.6064C459.34 7.31247 419.836 0.00014618 379.997 0.0364504C340.168 0.00308464 300.673 7.31537 263.496 21.6064C112.248 70.8042 2.61792 213.098 2.61792 380.582C2.61792 501.44 59.715 609.172 148.375 678.29C174.836 701.433 205.57 719.176 238.844 730.519C283.685 748.682 331.617 758 379.997 757.962C588.079 757.962 757.377 588.664 757.377 380.582C757.377 213.148 647.747 70.8603 496.499 21.6345" fill="black"/>
<path d="M379.997 725.814C189.533 725.814 34.5798 570.883 34.5798 380.425C34.5798 189.956 189.533 35.0019 379.997 35.0019C570.461 35.0019 725.415 189.956 725.415 380.419C725.415 570.883 570.461 725.814 379.997 725.814Z" fill="black"/>
<path d="M667.206 333.602C667.206 492.239 538.606 620.811 379.997 620.811C221.361 620.811 92.7886 492.244 92.7886 333.602C92.7886 174.994 221.361 46.3932 379.997 46.3932C538.634 46.3932 667.206 174.994 667.206 333.602Z" fill="#DDE05B"/>
<path d="M379.997 628.171C215.674 628.171 81.9644 494.484 81.9644 330.166C81.9644 165.848 215.679 32.1331 379.997 32.1331C544.316 32.1331 678.03 165.82 678.03 330.166C678.03 494.484 544.316 628.171 379.997 628.171ZM379.997 53.7255C227.581 53.7255 103.585 177.728 103.585 330.166C103.585 482.576 227.581 606.55 379.997 606.55C532.413 606.55 656.41 482.576 656.41 330.16C656.41 177.745 532.408 53.7311 379.997 53.7311V53.7255Z" fill="black"/>
<path d="M564.993 515.083C555.113 561.185 531.786 603.322 497.96 636.167C464.134 669.013 421.329 691.091 374.957 699.611C328.584 708.13 280.727 702.709 237.435 684.032C194.144 665.355 157.362 634.261 131.74 594.682C97.3904 541.6 85.5301 477.048 98.7678 415.222C112.192 353.578 149.505 299.768 202.53 265.584C255.555 231.399 319.969 219.628 381.657 232.848C443.346 246.069 497.278 283.203 531.638 336.115C565.997 389.027 577.982 453.402 564.965 515.133L564.993 515.083Z" fill="#9ED5D6"/>
<path d="M332.4 714.417C314.678 714.407 297.007 712.521 279.682 708.792C247.653 702.025 217.283 688.973 190.331 670.392C163.379 651.812 140.379 628.071 122.662 600.543C104.801 573.1 92.5625 542.386 86.655 510.18C80.7474 477.974 81.2885 444.916 88.2467 412.92C117.009 278.588 249.746 192.69 384.113 221.485C518.445 250.281 604.343 383.019 575.548 517.357C568.779 549.39 555.721 579.762 537.131 606.713C518.541 633.664 494.788 656.659 467.249 674.365C427.117 700.478 380.273 714.39 332.394 714.417H332.4ZM331.855 237.531C226.852 237.531 132.218 310.763 109.351 417.468C103.012 446.684 102.53 476.867 107.932 506.271C113.334 535.675 124.514 563.715 140.824 588.77C156.996 613.917 177.994 635.607 202.604 652.585C227.213 669.564 254.945 681.493 284.196 687.682C313.414 694.03 343.602 694.519 373.011 689.121C402.419 683.723 430.466 672.546 455.526 656.237C480.679 640.064 502.374 619.061 519.353 594.445C536.333 569.829 548.26 542.089 554.444 512.832C580.724 390.132 502.298 268.926 379.571 242.617C363.891 239.245 347.893 237.54 331.855 237.531Z" fill="black"/>
<path d="M688.046 475.188C688.046 514.421 672.461 552.047 644.719 579.788C616.977 607.53 579.352 623.115 540.119 623.115C500.886 623.115 463.26 607.53 435.518 579.788C407.777 552.047 392.191 514.421 392.191 475.188C392.191 435.955 407.777 398.329 435.518 370.588C463.26 342.846 500.886 327.261 540.119 327.261C579.352 327.261 616.977 342.846 644.719 370.588C672.461 398.329 688.046 435.955 688.046 475.188Z" fill="#FFE72D"/>
<path d="M540.127 633.909C498.048 633.86 457.706 617.123 427.951 587.368C398.196 557.614 381.457 517.273 381.406 475.194C381.456 433.114 398.193 392.772 427.947 363.017C457.701 333.262 498.042 316.523 540.122 316.473C582.2 316.525 622.54 333.263 652.295 363.017C682.049 392.77 698.789 433.11 698.842 475.188C698.787 517.266 682.048 557.604 652.295 587.358C622.543 617.112 582.205 633.852 540.127 633.909ZM540.127 338.093C503.776 338.135 468.925 352.592 443.219 378.293C417.512 403.995 403.048 438.843 402.999 475.194C403.045 511.547 417.507 546.398 443.212 572.103C468.918 597.809 503.769 612.27 540.122 612.316C576.477 612.278 611.332 597.819 637.039 572.111C662.746 546.404 677.206 511.549 677.244 475.194C677.201 438.842 662.74 403.991 637.033 378.289C611.326 352.586 576.479 338.131 540.127 338.093Z" fill="black"/>
</svg>
