<svg id="visual" viewBox="0 0 960 540" width="960" height="540" xmlns="http://www.w3.org/2000/svg" xmlns:xlink="http://www.w3.org/1999/xlink" version="1.1"><g stroke-width="40" stroke-linejoin="bevel"><path d="M481 243L485 222L449 195Z" fill="#4b4b4b" stroke="#454545"></path><path d="M449 195L425 256L481 243Z" fill="#474747" stroke="#454545"></path><path d="M449 195L410 230L425 256Z" fill="#4d4d4d" stroke="#454545"></path><path d="M425 256L438 268L481 243Z" fill="#474747" stroke="#454545"></path><path d="M449 195L409 215L410 230Z" fill="#4c4c4c" stroke="#454545"></path><path d="M485 222L455 178L449 195Z" fill="#474747" stroke="#454545"></path><path d="M449 195L382 172L409 215Z" fill="#4d4d4d" stroke="#454545"></path><path d="M425 256L435 276L438 268Z" fill="#4c4c4c" stroke="#454545"></path><path d="M438 268L521 298L481 243Z" fill="#4a4a4a" stroke="#454545"></path><path d="M432 287L435 276L425 256Z" fill="#464646" stroke="#454545"></path><path d="M394 314L432 287L425 256Z" fill="#4a4a4a" stroke="#454545"></path><path d="M435 276L521 298L438 268Z" fill="#4c4c4c" stroke="#454545"></path><path d="M524 178L514 176L485 222Z" fill="#494949" stroke="#454545"></path><path d="M485 222L514 176L455 178Z" fill="#484848" stroke="#454545"></path><path d="M549 222L524 178L485 222Z" fill="#4e4e4e" stroke="#454545"></path><path d="M539 139L484 146L514 176Z" fill="#474747" stroke="#454545"></path><path d="M514 176L484 146L455 178Z" fill="#494949" stroke="#454545"></path><path d="M386 161L382 172L449 195Z" fill="#454545" stroke="#454545"></path><path d="M386 161L449 195L455 178Z" fill="#464646" stroke="#454545"></path><path d="M409 215L306 227L410 230Z" fill="#4e4e4e" stroke="#454545"></path><path d="M410 230L394 314L425 256Z" fill="#484848" stroke="#454545"></path><path d="M389 129L386 161L455 178Z" fill="#4e4e4e" stroke="#454545"></path><path d="M521 298L549 222L481 243Z" fill="#4e4e4e" stroke="#454545"></path><path d="M481 243L549 222L485 222Z" fill="#494949" stroke="#454545"></path><path d="M468 336L521 298L435 276Z" fill="#454545" stroke="#454545"></path><path d="M549 222L552 212L524 178Z" fill="#4d4d4d" stroke="#454545"></path><path d="M374 337L394 314L323 287Z" fill="#4c4c4c" stroke="#454545"></path><path d="M432 287L468 336L435 276Z" fill="#4d4d4d" stroke="#454545"></path><path d="M394 314L468 336L432 287Z" fill="#4d4d4d" stroke="#454545"></path><path d="M425 86L389 129L455 178Z" fill="#494949" stroke="#454545"></path><path d="M386 161L361 128L382 172Z" fill="#494949" stroke="#454545"></path><path d="M394 314L470 344L468 336Z" fill="#454545" stroke="#454545"></path><path d="M468 336L470 344L521 298Z" fill="#4b4b4b" stroke="#454545"></path><path d="M552 212L553 160L524 178Z" fill="#484848" stroke="#454545"></path><path d="M524 178L539 139L514 176Z" fill="#4e4e4e" stroke="#454545"></path><path d="M553 160L539 139L524 178Z" fill="#4d4d4d" stroke="#454545"></path><path d="M484 146L425 86L455 178Z" fill="#494949" stroke="#454545"></path><path d="M521 298L587 230L549 222Z" fill="#4d4d4d" stroke="#454545"></path><path d="M549 222L587 230L552 212Z" fill="#4e4e4e" stroke="#454545"></path><path d="M552 212L590 208L553 160Z" fill="#494949" stroke="#454545"></path><path d="M539 139L509 105L484 146Z" fill="#474747" stroke="#454545"></path><path d="M425 86L361 128L389 129Z" fill="#454545" stroke="#454545"></path><path d="M389 129L361 128L386 161Z" fill="#454545" stroke="#454545"></path><path d="M323 287L394 314L410 230Z" fill="#4e4e4e" stroke="#454545"></path><path d="M306 227L409 215L382 172Z" fill="#454545" stroke="#454545"></path><path d="M394 314L441 398L470 344Z" fill="#4e4e4e" stroke="#454545"></path><path d="M361 128L330 170L382 172Z" fill="#464646" stroke="#454545"></path><path d="M587 230L590 208L552 212Z" fill="#4b4b4b" stroke="#454545"></path><path d="M570 80L537 101L539 139Z" fill="#4e4e4e" stroke="#454545"></path><path d="M587 230L592 216L590 208Z" fill="#4b4b4b" stroke="#454545"></path><path d="M331 340L374 342L374 337Z" fill="#474747" stroke="#454545"></path><path d="M374 337L374 342L394 314Z" fill="#474747" stroke="#454545"></path><path d="M306 227L323 287L410 230Z" fill="#474747" stroke="#454545"></path><path d="M509 105L425 86L484 146Z" fill="#474747" stroke="#454545"></path><path d="M330 170L306 227L382 172Z" fill="#454545" stroke="#454545"></path><path d="M539 139L537 101L509 105Z" fill="#4e4e4e" stroke="#454545"></path><path d="M509 105L468 -4L425 86Z" fill="#4c4c4c" stroke="#454545"></path><path d="M607 139L539 139L553 160Z" fill="#484848" stroke="#454545"></path><path d="M550 361L540 353L474 415Z" fill="#494949" stroke="#454545"></path><path d="M470 344L540 353L521 298Z" fill="#474747" stroke="#454545"></path><path d="M598 322L610 238L587 230Z" fill="#4a4a4a" stroke="#454545"></path><path d="M610 238L592 216L587 230Z" fill="#4b4b4b" stroke="#454545"></path><path d="M610 238L606 208L592 216Z" fill="#454545" stroke="#454545"></path><path d="M592 216L606 208L590 208Z" fill="#4c4c4c" stroke="#454545"></path><path d="M590 208L607 139L553 160Z" fill="#4d4d4d" stroke="#454545"></path><path d="M598 322L587 230L521 298Z" fill="#474747" stroke="#454545"></path><path d="M289 284L313 298L323 287Z" fill="#464646" stroke="#454545"></path><path d="M323 287L331 340L374 337Z" fill="#4b4b4b" stroke="#454545"></path><path d="M361 128L318 136L330 170Z" fill="#474747" stroke="#454545"></path><path d="M330 170L275 194L306 227Z" fill="#4b4b4b" stroke="#454545"></path><path d="M302 145L318 136L279 103Z" fill="#494949" stroke="#454545"></path><path d="M474 415L540 353L470 344Z" fill="#4c4c4c" stroke="#454545"></path><path d="M593 334L598 322L521 298Z" fill="#494949" stroke="#454545"></path><path d="M313 298L331 340L323 287Z" fill="#4d4d4d" stroke="#454545"></path><path d="M374 342L441 398L394 314Z" fill="#4c4c4c" stroke="#454545"></path><path d="M400 402L441 398L374 342Z" fill="#4c4c4c" stroke="#454545"></path><path d="M318 136L302 145L330 170Z" fill="#464646" stroke="#454545"></path><path d="M593 334L521 298L540 353Z" fill="#484848" stroke="#454545"></path><path d="M306 227L289 284L323 287Z" fill="#494949" stroke="#454545"></path><path d="M313 298L297 324L331 340Z" fill="#4e4e4e" stroke="#454545"></path><path d="M269 278L289 284L306 227Z" fill="#454545" stroke="#454545"></path><path d="M576 357L593 334L540 353Z" fill="#4e4e4e" stroke="#454545"></path><path d="M668 151L607 139L606 208Z" fill="#464646" stroke="#454545"></path><path d="M606 208L607 139L590 208Z" fill="#494949" stroke="#454545"></path><path d="M593 398L576 357L550 361Z" fill="#4a4a4a" stroke="#454545"></path><path d="M550 361L576 357L540 353Z" fill="#4a4a4a" stroke="#454545"></path><path d="M302 145L275 194L330 170Z" fill="#484848" stroke="#454545"></path><path d="M362 398L400 402L374 342Z" fill="#4a4a4a" stroke="#454545"></path><path d="M289 284L297 324L313 298Z" fill="#454545" stroke="#454545"></path><path d="M331 340L362 398L374 342Z" fill="#454545" stroke="#454545"></path><path d="M576 357L601 340L593 334Z" fill="#4b4b4b" stroke="#454545"></path><path d="M593 334L601 340L598 322Z" fill="#4e4e4e" stroke="#454545"></path><path d="M598 322L624 302L610 238Z" fill="#454545" stroke="#454545"></path><path d="M634 305L624 302L621 346Z" fill="#474747" stroke="#454545"></path><path d="M610 238L658 213L606 208Z" fill="#4d4d4d" stroke="#454545"></path><path d="M607 139L570 80L539 139Z" fill="#454545" stroke="#454545"></path><path d="M537 101L542 40L509 105Z" fill="#454545" stroke="#454545"></path><path d="M431 451L474 415L441 398Z" fill="#4c4c4c" stroke="#454545"></path><path d="M441 398L474 415L470 344Z" fill="#464646" stroke="#454545"></path><path d="M275 194L269 278L306 227Z" fill="#4b4b4b" stroke="#454545"></path><path d="M289 284L243 309L297 324Z" fill="#494949" stroke="#454545"></path><path d="M336 406L362 398L331 340Z" fill="#464646" stroke="#454545"></path><path d="M400 402L431 451L441 398Z" fill="#484848" stroke="#454545"></path><path d="M621 346L624 302L598 322Z" fill="#4b4b4b" stroke="#454545"></path><path d="M624 302L634 305L610 238Z" fill="#484848" stroke="#454545"></path><path d="M641 75L576 70L570 80Z" fill="#464646" stroke="#454545"></path><path d="M570 80L542 40L537 101Z" fill="#4a4a4a" stroke="#454545"></path><path d="M336 406L371 409L362 398Z" fill="#4e4e4e" stroke="#454545"></path><path d="M362 398L371 409L400 402Z" fill="#4d4d4d" stroke="#454545"></path><path d="M683 227L658 213L688 239Z" fill="#4a4a4a" stroke="#454545"></path><path d="M607 139L641 75L570 80Z" fill="#4e4e4e" stroke="#454545"></path><path d="M625 352L621 346L601 340Z" fill="#474747" stroke="#454545"></path><path d="M601 340L621 346L598 322Z" fill="#4c4c4c" stroke="#454545"></path><path d="M625 352L601 340L576 357Z" fill="#4c4c4c" stroke="#454545"></path><path d="M576 70L542 40L570 80Z" fill="#474747" stroke="#454545"></path><path d="M279 103L271 123L302 145Z" fill="#464646" stroke="#454545"></path><path d="M302 145L248 159L275 194Z" fill="#4d4d4d" stroke="#454545"></path><path d="M275 194L224 289L269 278Z" fill="#474747" stroke="#454545"></path><path d="M279 103L318 136L361 128Z" fill="#474747" stroke="#454545"></path><path d="M279 103L361 128L316 0Z" fill="#474747" stroke="#454545"></path><path d="M593 398L625 352L576 357Z" fill="#4a4a4a" stroke="#454545"></path><path d="M621 346L667 332L634 305Z" fill="#454545" stroke="#454545"></path><path d="M688 239L658 213L610 238Z" fill="#4c4c4c" stroke="#454545"></path><path d="M379 0L361 128L425 86Z" fill="#4c4c4c" stroke="#454545"></path><path d="M327 411L336 406L331 340Z" fill="#484848" stroke="#454545"></path><path d="M327 411L331 340L297 324Z" fill="#474747" stroke="#454545"></path><path d="M250 113L248 159L271 123Z" fill="#4e4e4e" stroke="#454545"></path><path d="M271 123L248 159L302 145Z" fill="#474747" stroke="#454545"></path><path d="M545 439L593 398L550 361Z" fill="#4c4c4c" stroke="#454545"></path><path d="M322 424L327 411L250 397Z" fill="#4d4d4d" stroke="#454545"></path><path d="M336 406L354 440L371 409Z" fill="#454545" stroke="#454545"></path><path d="M371 409L431 451L400 402Z" fill="#454545" stroke="#454545"></path><path d="M354 440L431 451L371 409Z" fill="#4c4c4c" stroke="#454545"></path><path d="M474 415L545 439L550 361Z" fill="#4a4a4a" stroke="#454545"></path><path d="M224 289L243 309L269 278Z" fill="#464646" stroke="#454545"></path><path d="M269 278L243 309L289 284Z" fill="#454545" stroke="#454545"></path><path d="M658 213L668 151L606 208Z" fill="#474747" stroke="#454545"></path><path d="M566 -8L511 0L542 40Z" fill="#4d4d4d" stroke="#454545"></path><path d="M688 239L610 238L634 305Z" fill="#464646" stroke="#454545"></path><path d="M658 213L706 195L668 151Z" fill="#4b4b4b" stroke="#454545"></path><path d="M468 -4L414 0L425 86Z" fill="#4a4a4a" stroke="#454545"></path><path d="M593 398L639 364L625 352Z" fill="#4a4a4a" stroke="#454545"></path><path d="M625 352L667 332L621 346Z" fill="#494949" stroke="#454545"></path><path d="M460 496L545 439L474 415Z" fill="#4b4b4b" stroke="#454545"></path><path d="M593 398L651 378L639 364Z" fill="#4d4d4d" stroke="#454545"></path><path d="M511 0L468 -4L509 105Z" fill="#494949" stroke="#454545"></path><path d="M468 -4L406 0L414 0Z" fill="#454545" stroke="#454545"></path><path d="M414 0L406 0L425 86Z" fill="#4a4a4a" stroke="#454545"></path><path d="M279 103L250 113L271 123Z" fill="#474747" stroke="#454545"></path><path d="M243 78L250 113L279 103Z" fill="#4c4c4c" stroke="#454545"></path><path d="M612 39L542 40L576 70Z" fill="#4c4c4c" stroke="#454545"></path><path d="M542 40L511 0L509 105Z" fill="#4d4d4d" stroke="#454545"></path><path d="M692 277L688 239L634 305Z" fill="#4b4b4b" stroke="#454545"></path><path d="M683 227L706 195L658 213Z" fill="#4d4d4d" stroke="#454545"></path><path d="M322 424L354 440L336 406Z" fill="#464646" stroke="#454545"></path><path d="M667 332L677 304L634 305Z" fill="#4c4c4c" stroke="#454545"></path><path d="M250 397L327 411L297 324Z" fill="#4a4a4a" stroke="#454545"></path><path d="M327 411L322 424L336 406Z" fill="#4d4d4d" stroke="#454545"></path><path d="M224 289L242 334L243 309Z" fill="#494949" stroke="#454545"></path><path d="M243 309L242 334L297 324Z" fill="#4c4c4c" stroke="#454545"></path><path d="M213 170L275 194L248 159Z" fill="#474747" stroke="#454545"></path><path d="M213 170L224 289L275 194Z" fill="#4c4c4c" stroke="#454545"></path><path d="M639 364L667 332L625 352Z" fill="#474747" stroke="#454545"></path><path d="M599 -41L379 0L406 0Z" fill="#454545" stroke="#454545"></path><path d="M406 0L379 0L425 86Z" fill="#4b4b4b" stroke="#454545"></path><path d="M668 151L641 75L607 139Z" fill="#474747" stroke="#454545"></path><path d="M714 283L692 277L677 304Z" fill="#474747" stroke="#454545"></path><path d="M677 304L692 277L634 305Z" fill="#4b4b4b" stroke="#454545"></path><path d="M641 75L612 39L576 70Z" fill="#4e4e4e" stroke="#454545"></path><path d="M250 113L213 170L248 159Z" fill="#474747" stroke="#454545"></path><path d="M682 479L651 378L593 398Z" fill="#4b4b4b" stroke="#454545"></path><path d="M639 364L651 378L667 332Z" fill="#474747" stroke="#454545"></path><path d="M667 332L679 333L677 304Z" fill="#494949" stroke="#454545"></path><path d="M339 453L344 451L322 424Z" fill="#474747" stroke="#454545"></path><path d="M322 424L344 451L354 440Z" fill="#474747" stroke="#454545"></path><path d="M354 440L353 472L431 451Z" fill="#494949" stroke="#454545"></path><path d="M651 378L679 333L667 332Z" fill="#454545" stroke="#454545"></path><path d="M333 483L339 453L322 424Z" fill="#4d4d4d" stroke="#454545"></path><path d="M344 451L353 472L354 440Z" fill="#484848" stroke="#454545"></path><path d="M695 86L644 58L641 75Z" fill="#464646" stroke="#454545"></path><path d="M641 75L644 58L612 39Z" fill="#494949" stroke="#454545"></path><path d="M722 217L683 227L688 239Z" fill="#4d4d4d" stroke="#454545"></path><path d="M722 217L706 195L683 227Z" fill="#4d4d4d" stroke="#454545"></path><path d="M668 151L695 86L641 75Z" fill="#4a4a4a" stroke="#454545"></path><path d="M161 280L238 368L242 334Z" fill="#484848" stroke="#454545"></path><path d="M242 334L238 368L297 324Z" fill="#474747" stroke="#454545"></path><path d="M316 0L243 78L279 103Z" fill="#474747" stroke="#454545"></path><path d="M250 113L159 73L213 170Z" fill="#4e4e4e" stroke="#454545"></path><path d="M612 39L566 -8L542 40Z" fill="#4a4a4a" stroke="#454545"></path><path d="M511 0L599 -41L468 -4Z" fill="#464646" stroke="#454545"></path><path d="M615 0L566 -8L612 39Z" fill="#4d4d4d" stroke="#454545"></path><path d="M339 453L353 472L344 451Z" fill="#4e4e4e" stroke="#454545"></path><path d="M431 451L460 496L474 415Z" fill="#4c4c4c" stroke="#454545"></path><path d="M333 483L353 472L339 453Z" fill="#474747" stroke="#454545"></path><path d="M238 368L250 397L297 324Z" fill="#4d4d4d" stroke="#454545"></path><path d="M186 -22L316 0L379 0Z" fill="#474747" stroke="#454545"></path><path d="M379 0L316 0L361 128Z" fill="#474747" stroke="#454545"></path><path d="M599 -41L406 0L468 -4Z" fill="#4b4b4b" stroke="#454545"></path><path d="M679 333L714 283L677 304Z" fill="#484848" stroke="#454545"></path><path d="M692 277L714 283L688 239Z" fill="#4a4a4a" stroke="#454545"></path><path d="M742 276L714 283L761 325Z" fill="#474747" stroke="#454545"></path><path d="M714 283L722 217L688 239Z" fill="#464646" stroke="#454545"></path><path d="M736 136L695 86L668 151Z" fill="#4d4d4d" stroke="#454545"></path><path d="M402 537L460 496L431 451Z" fill="#4b4b4b" stroke="#454545"></path><path d="M545 439L596 496L593 398Z" fill="#474747" stroke="#454545"></path><path d="M161 280L231 386L238 368Z" fill="#484848" stroke="#454545"></path><path d="M238 368L231 386L250 397Z" fill="#474747" stroke="#454545"></path><path d="M233 474L333 483L322 424Z" fill="#474747" stroke="#454545"></path><path d="M161 280L242 334L224 289Z" fill="#4e4e4e" stroke="#454545"></path><path d="M616 0L615 0L612 39Z" fill="#454545" stroke="#454545"></path><path d="M650 9L612 39L644 58Z" fill="#474747" stroke="#454545"></path><path d="M650 9L616 0L612 39Z" fill="#4a4a4a" stroke="#454545"></path><path d="M615 0L599 -41L566 -8Z" fill="#4c4c4c" stroke="#454545"></path><path d="M736 136L668 151L706 195Z" fill="#4a4a4a" stroke="#454545"></path><path d="M777 221L734 200L722 217Z" fill="#484848" stroke="#454545"></path><path d="M722 217L734 200L706 195Z" fill="#4e4e4e" stroke="#454545"></path><path d="M227 440L322 424L250 397Z" fill="#494949" stroke="#454545"></path><path d="M353 472L402 537L431 451Z" fill="#4a4a4a" stroke="#454545"></path><path d="M153 200L167 201L115 159Z" fill="#4e4e4e" stroke="#454545"></path><path d="M213 170L167 201L224 289Z" fill="#4b4b4b" stroke="#454545"></path><path d="M226 37L220 57L243 78Z" fill="#4d4d4d" stroke="#454545"></path><path d="M243 78L159 73L250 113Z" fill="#454545" stroke="#454545"></path><path d="M761 325L714 283L679 333Z" fill="#464646" stroke="#454545"></path><path d="M714 283L742 276L722 217Z" fill="#4a4a4a" stroke="#454545"></path><path d="M709 0L650 9L644 58Z" fill="#454545" stroke="#454545"></path><path d="M316 0L226 37L243 78Z" fill="#4c4c4c" stroke="#454545"></path><path d="M115 159L167 201L213 170Z" fill="#474747" stroke="#454545"></path><path d="M795 169L736 136L734 200Z" fill="#474747" stroke="#454545"></path><path d="M734 200L736 136L706 195Z" fill="#454545" stroke="#454545"></path><path d="M695 86L709 0L644 58Z" fill="#4a4a4a" stroke="#454545"></path><path d="M167 201L161 280L224 289Z" fill="#4b4b4b" stroke="#454545"></path><path d="M159 73L243 78L220 57Z" fill="#454545" stroke="#454545"></path><path d="M167 201L147 229L161 280Z" fill="#474747" stroke="#454545"></path><path d="M551 540L596 496L545 439Z" fill="#4d4d4d" stroke="#454545"></path><path d="M756 428L761 325L679 333Z" fill="#4d4d4d" stroke="#454545"></path><path d="M616 0L599 -41L615 0Z" fill="#4c4c4c" stroke="#454545"></path><path d="M566 -8L599 -41L511 0Z" fill="#454545" stroke="#454545"></path><path d="M650 9L599 -41L616 0Z" fill="#4e4e4e" stroke="#454545"></path><path d="M153 200L147 229L167 201Z" fill="#4e4e4e" stroke="#454545"></path><path d="M231 386L227 440L250 397Z" fill="#4b4b4b" stroke="#454545"></path><path d="M200 426L227 440L231 386Z" fill="#4c4c4c" stroke="#454545"></path><path d="M147 229L141 244L161 280Z" fill="#474747" stroke="#454545"></path><path d="M97 369L200 426L231 386Z" fill="#474747" stroke="#454545"></path><path d="M120 225L141 244L147 229Z" fill="#464646" stroke="#454545"></path><path d="M357 540L353 472L333 483Z" fill="#474747" stroke="#454545"></path><path d="M357 540L402 537L353 472Z" fill="#4a4a4a" stroke="#454545"></path><path d="M460 496L531 540L545 439Z" fill="#4d4d4d" stroke="#454545"></path><path d="M402 537L420 540L460 496Z" fill="#484848" stroke="#454545"></path><path d="M736 136L726 67L695 86Z" fill="#474747" stroke="#454545"></path><path d="M650 9L698 -16L599 -41Z" fill="#454545" stroke="#454545"></path><path d="M186 -22L225 0L316 0Z" fill="#474747" stroke="#454545"></path><path d="M316 0L225 0L226 37Z" fill="#474747" stroke="#454545"></path><path d="M226 37L159 73L220 57Z" fill="#474747" stroke="#454545"></path><path d="M97 369L231 386L161 280Z" fill="#484848" stroke="#454545"></path><path d="M304 540L357 540L333 483Z" fill="#494949" stroke="#454545"></path><path d="M420 540L531 540L460 496Z" fill="#484848" stroke="#454545"></path><path d="M756 428L679 333L651 378Z" fill="#474747" stroke="#454545"></path><path d="M742 276L777 221L722 217Z" fill="#4c4c4c" stroke="#454545"></path><path d="M813 235L777 221L742 276Z" fill="#4d4d4d" stroke="#454545"></path><path d="M736 136L745 63L726 67Z" fill="#4c4c4c" stroke="#454545"></path><path d="M186 -22L221 0L225 0Z" fill="#474747" stroke="#454545"></path><path d="M225 0L221 0L226 37Z" fill="#474747" stroke="#454545"></path><path d="M402 537L357 540L420 540Z" fill="#454545" stroke="#454545"></path><path d="M233 474L322 424L227 440Z" fill="#4c4c4c" stroke="#454545"></path><path d="M531 540L551 540L545 439Z" fill="#474747" stroke="#454545"></path><path d="M585 540L612 517L596 496Z" fill="#474747" stroke="#454545"></path><path d="M596 496L682 479L593 398Z" fill="#494949" stroke="#454545"></path><path d="M200 426L233 474L227 440Z" fill="#4a4a4a" stroke="#454545"></path><path d="M186 -22L159 73L226 37Z" fill="#474747" stroke="#454545"></path><path d="M153 200L120 225L147 229Z" fill="#4d4d4d" stroke="#454545"></path><path d="M100 175L120 225L153 200Z" fill="#4b4b4b" stroke="#454545"></path><path d="M141 244L99 313L161 280Z" fill="#474747" stroke="#454545"></path><path d="M551 540L568 540L596 496Z" fill="#4a4a4a" stroke="#454545"></path><path d="M798 95L745 63L736 136Z" fill="#494949" stroke="#454545"></path><path d="M726 67L709 0L695 86Z" fill="#494949" stroke="#454545"></path><path d="M568 540L585 540L596 496Z" fill="#474747" stroke="#454545"></path><path d="M813 235L793 215L777 221Z" fill="#474747" stroke="#454545"></path><path d="M777 221L795 169L734 200Z" fill="#464646" stroke="#454545"></path><path d="M639 540L682 479L612 517Z" fill="#484848" stroke="#454545"></path><path d="M612 517L682 479L596 496Z" fill="#464646" stroke="#454545"></path><path d="M714 0L709 0L726 67Z" fill="#4c4c4c" stroke="#454545"></path><path d="M706 540L688 476L682 479Z" fill="#4e4e4e" stroke="#454545"></path><path d="M682 479L688 476L651 378Z" fill="#4b4b4b" stroke="#454545"></path><path d="M709 0L698 -16L650 9Z" fill="#474747" stroke="#454545"></path><path d="M129 94L115 159L213 170Z" fill="#4e4e4e" stroke="#454545"></path><path d="M745 63L714 0L726 67Z" fill="#4c4c4c" stroke="#454545"></path><path d="M709 0L714 0L698 -16Z" fill="#4a4a4a" stroke="#454545"></path><path d="M793 215L795 169L777 221Z" fill="#4d4d4d" stroke="#454545"></path><path d="M266 524L304 540L333 483Z" fill="#454545" stroke="#454545"></path><path d="M113 46L129 94L159 73Z" fill="#454545" stroke="#454545"></path><path d="M159 73L129 94L213 170Z" fill="#4e4e4e" stroke="#454545"></path><path d="M237 540L266 524L233 474Z" fill="#4e4e4e" stroke="#454545"></path><path d="M233 474L266 524L333 483Z" fill="#454545" stroke="#454545"></path><path d="M84 75L121 100L129 94Z" fill="#474747" stroke="#454545"></path><path d="M129 94L121 100L115 159Z" fill="#474747" stroke="#454545"></path><path d="M101 145L100 175L115 159Z" fill="#474747" stroke="#454545"></path><path d="M115 159L100 175L153 200Z" fill="#464646" stroke="#454545"></path><path d="M72 285L99 313L141 244Z" fill="#4c4c4c" stroke="#454545"></path><path d="M830 287L813 235L742 276Z" fill="#484848" stroke="#454545"></path><path d="M793 215L841 226L795 169Z" fill="#464646" stroke="#454545"></path><path d="M830 287L742 276L761 325Z" fill="#4e4e4e" stroke="#454545"></path><path d="M121 100L101 145L115 159Z" fill="#4b4b4b" stroke="#454545"></path><path d="M688 476L756 428L651 378Z" fill="#4c4c4c" stroke="#454545"></path><path d="M585 540L639 540L612 517Z" fill="#474747" stroke="#454545"></path><path d="M688 476L731 521L756 428Z" fill="#474747" stroke="#454545"></path><path d="M81 316L99 313L72 285Z" fill="#4c4c4c" stroke="#454545"></path><path d="M200 426L161 454L233 474Z" fill="#494949" stroke="#454545"></path><path d="M599 -41L186 -22L379 0Z" fill="#474747" stroke="#454545"></path><path d="M221 0L186 -22L226 37Z" fill="#4d4d4d" stroke="#454545"></path><path d="M820 123L798 95L795 169Z" fill="#474747" stroke="#454545"></path><path d="M795 169L798 95L736 136Z" fill="#4a4a4a" stroke="#454545"></path><path d="M745 63L770 0L714 0Z" fill="#464646" stroke="#454545"></path><path d="M128 448L161 454L200 426Z" fill="#464646" stroke="#454545"></path><path d="M568 540L601 572L585 540Z" fill="#464646" stroke="#454545"></path><path d="M585 540L601 572L639 540Z" fill="#4c4c4c" stroke="#454545"></path><path d="M551 540L601 572L568 540Z" fill="#494949" stroke="#454545"></path><path d="M531 540L601 572L551 540Z" fill="#474747" stroke="#454545"></path><path d="M420 540L601 572L531 540Z" fill="#4d4d4d" stroke="#454545"></path><path d="M130 594L601 572L420 540Z" fill="#474747" stroke="#454545"></path><path d="M130 594L420 540L357 540Z" fill="#4c4c4c" stroke="#454545"></path><path d="M74 130L73 202L100 175Z" fill="#4c4c4c" stroke="#454545"></path><path d="M100 175L73 202L120 225Z" fill="#494949" stroke="#454545"></path><path d="M121 100L90 126L101 145Z" fill="#454545" stroke="#454545"></path><path d="M84 75L90 126L121 100Z" fill="#4e4e4e" stroke="#454545"></path><path d="M266 524L237 540L304 540Z" fill="#4d4d4d" stroke="#454545"></path><path d="M304 540L156 580L357 540Z" fill="#4a4a4a" stroke="#454545"></path><path d="M215 540L237 540L233 474Z" fill="#474747" stroke="#454545"></path><path d="M74 130L100 175L101 145Z" fill="#474747" stroke="#454545"></path><path d="M846 117L820 123L795 169Z" fill="#484848" stroke="#454545"></path><path d="M849 317L830 287L761 325Z" fill="#464646" stroke="#454545"></path><path d="M813 235L841 226L793 215Z" fill="#484848" stroke="#454545"></path><path d="M72 285L141 244L120 225Z" fill="#4c4c4c" stroke="#454545"></path><path d="M99 313L97 369L161 280Z" fill="#474747" stroke="#454545"></path><path d="M81 316L97 369L99 313Z" fill="#474747" stroke="#454545"></path><path d="M120 0L117 41L159 73Z" fill="#494949" stroke="#454545"></path><path d="M117 41L113 46L159 73Z" fill="#494949" stroke="#454545"></path><path d="M73 202L72 285L120 225Z" fill="#4e4e4e" stroke="#454545"></path><path d="M830 287L841 226L813 235Z" fill="#4c4c4c" stroke="#454545"></path><path d="M601 572L675 546L639 540Z" fill="#454545" stroke="#454545"></path><path d="M639 540L675 546L682 479Z" fill="#454545" stroke="#454545"></path><path d="M813 0L745 63L798 95Z" fill="#494949" stroke="#454545"></path><path d="M813 0L770 0L745 63Z" fill="#4d4d4d" stroke="#454545"></path><path d="M714 0L770 0L698 -16Z" fill="#474747" stroke="#454545"></path><path d="M698 -16L850 -51L599 -41Z" fill="#4c4c4c" stroke="#454545"></path><path d="M90 126L74 130L101 145Z" fill="#4c4c4c" stroke="#454545"></path><path d="M66 119L74 130L90 126Z" fill="#494949" stroke="#454545"></path><path d="M756 428L809 393L761 325Z" fill="#4b4b4b" stroke="#454545"></path><path d="M809 425L809 393L756 428Z" fill="#464646" stroke="#454545"></path><path d="M105 426L128 448L200 426Z" fill="#4e4e4e" stroke="#454545"></path><path d="M160 495L215 540L233 474Z" fill="#454545" stroke="#454545"></path><path d="M160 495L233 474L161 454Z" fill="#474747" stroke="#454545"></path><path d="M237 540L156 580L304 540Z" fill="#4e4e4e" stroke="#454545"></path><path d="M128 448L160 495L161 454Z" fill="#4b4b4b" stroke="#454545"></path><path d="M74 0L84 75L113 46Z" fill="#4b4b4b" stroke="#454545"></path><path d="M113 46L84 75L129 94Z" fill="#474747" stroke="#454545"></path><path d="M97 369L105 426L200 426Z" fill="#494949" stroke="#454545"></path><path d="M85 540L174 540L160 495Z" fill="#474747" stroke="#454545"></path><path d="M42 387L105 426L97 369Z" fill="#4b4b4b" stroke="#454545"></path><path d="M44 372L97 369L81 316Z" fill="#454545" stroke="#454545"></path><path d="M84 75L66 119L90 126Z" fill="#4c4c4c" stroke="#454545"></path><path d="M0 148L0 199L73 202Z" fill="#4d4d4d" stroke="#454545"></path><path d="M0 291L35 307L72 285Z" fill="#484848" stroke="#454545"></path><path d="M729 540L706 540L747 561Z" fill="#4c4c4c" stroke="#454545"></path><path d="M675 546L706 540L682 479Z" fill="#484848" stroke="#454545"></path><path d="M117 41L84 0L113 46Z" fill="#474747" stroke="#454545"></path><path d="M186 -22L120 0L159 73Z" fill="#464646" stroke="#454545"></path><path d="M706 540L731 521L688 476Z" fill="#474747" stroke="#454545"></path><path d="M809 393L849 317L761 325Z" fill="#4b4b4b" stroke="#454545"></path><path d="M830 287L867 244L841 226Z" fill="#474747" stroke="#454545"></path><path d="M787 486L809 425L756 428Z" fill="#464646" stroke="#454545"></path><path d="M809 393L893 400L849 317Z" fill="#4b4b4b" stroke="#454545"></path><path d="M841 226L846 117L795 169Z" fill="#494949" stroke="#454545"></path><path d="M820 123L846 117L798 95Z" fill="#494949" stroke="#454545"></path><path d="M960 169L846 117L841 226Z" fill="#4b4b4b" stroke="#454545"></path><path d="M849 317L867 244L830 287Z" fill="#474747" stroke="#454545"></path><path d="M174 540L180 540L160 495Z" fill="#494949" stroke="#454545"></path><path d="M160 495L180 540L215 540Z" fill="#494949" stroke="#454545"></path><path d="M215 540L156 580L237 540Z" fill="#474747" stroke="#454545"></path><path d="M706 540L729 540L731 521Z" fill="#474747" stroke="#454545"></path><path d="M731 521L787 486L756 428Z" fill="#4a4a4a" stroke="#454545"></path><path d="M747 561L706 540L675 546Z" fill="#4b4b4b" stroke="#454545"></path><path d="M96 490L160 495L128 448Z" fill="#484848" stroke="#454545"></path><path d="M180 540L156 580L215 540Z" fill="#454545" stroke="#454545"></path><path d="M787 502L787 486L731 521Z" fill="#484848" stroke="#454545"></path><path d="M809 425L852 431L809 393Z" fill="#474747" stroke="#454545"></path><path d="M854 67L813 0L798 95Z" fill="#454545" stroke="#454545"></path><path d="M770 0L850 -51L698 -16Z" fill="#4b4b4b" stroke="#454545"></path><path d="M14 322L35 307L0 291Z" fill="#454545" stroke="#454545"></path><path d="M72 285L35 307L81 316Z" fill="#484848" stroke="#454545"></path><path d="M874 98L854 67L846 117Z" fill="#454545" stroke="#454545"></path><path d="M846 117L854 67L798 95Z" fill="#4b4b4b" stroke="#454545"></path><path d="M747 561L787 502L731 521Z" fill="#474747" stroke="#454545"></path><path d="M787 486L852 431L809 425Z" fill="#4e4e4e" stroke="#454545"></path><path d="M186 -22L84 0L120 0Z" fill="#484848" stroke="#454545"></path><path d="M120 0L84 0L117 41Z" fill="#474747" stroke="#454545"></path><path d="M0 110L0 148L66 119Z" fill="#4b4b4b" stroke="#454545"></path><path d="M0 199L72 285L73 202Z" fill="#454545" stroke="#454545"></path><path d="M35 307L44 372L81 316Z" fill="#474747" stroke="#454545"></path><path d="M105 426L96 490L128 448Z" fill="#464646" stroke="#454545"></path><path d="M960 169L874 98L846 117Z" fill="#4c4c4c" stroke="#454545"></path><path d="M854 67L882 0L813 0Z" fill="#4d4d4d" stroke="#454545"></path><path d="M0 377L42 387L44 372Z" fill="#464646" stroke="#454545"></path><path d="M44 372L42 387L97 369Z" fill="#4b4b4b" stroke="#454545"></path><path d="M-30 -54L74 0L84 0Z" fill="#454545" stroke="#454545"></path><path d="M84 0L74 0L113 46Z" fill="#4d4d4d" stroke="#454545"></path><path d="M28 447L96 490L105 426Z" fill="#464646" stroke="#454545"></path><path d="M601 572L747 561L675 546Z" fill="#4b4b4b" stroke="#454545"></path><path d="M729 540L747 561L731 521Z" fill="#464646" stroke="#454545"></path><path d="M872 540L852 431L787 486Z" fill="#454545" stroke="#454545"></path><path d="M942 268L928 246L867 244Z" fill="#494949" stroke="#454545"></path><path d="M893 400L852 431L912 437Z" fill="#474747" stroke="#454545"></path><path d="M73 202L74 130L0 148Z" fill="#4a4a4a" stroke="#454545"></path><path d="M35 307L14 322L44 372Z" fill="#4e4e4e" stroke="#454545"></path><path d="M0 148L74 130L66 119Z" fill="#4d4d4d" stroke="#454545"></path><path d="M0 199L0 291L72 285Z" fill="#4e4e4e" stroke="#454545"></path><path d="M14 322L0 377L44 372Z" fill="#454545" stroke="#454545"></path><path d="M0 110L66 119L84 75Z" fill="#464646" stroke="#454545"></path><path d="M85 540L156 580L174 540Z" fill="#464646" stroke="#454545"></path><path d="M174 540L156 580L180 540Z" fill="#4e4e4e" stroke="#454545"></path><path d="M0 291L0 316L14 322Z" fill="#464646" stroke="#454545"></path><path d="M42 387L28 447L105 426Z" fill="#484848" stroke="#454545"></path><path d="M0 316L0 321L14 322Z" fill="#494949" stroke="#454545"></path><path d="M0 23L0 110L84 75Z" fill="#4c4c4c" stroke="#454545"></path><path d="M928 79L896 62L874 98Z" fill="#464646" stroke="#454545"></path><path d="M874 98L896 62L854 67Z" fill="#474747" stroke="#454545"></path><path d="M960 182L841 226L867 244Z" fill="#474747" stroke="#454545"></path><path d="M816 540L787 486L787 502Z" fill="#4b4b4b" stroke="#454545"></path><path d="M852 431L893 400L809 393Z" fill="#484848" stroke="#454545"></path><path d="M747 561L810 540L787 502Z" fill="#4d4d4d" stroke="#454545"></path><path d="M942 268L867 244L849 317Z" fill="#464646" stroke="#454545"></path><path d="M0 321L0 377L14 322Z" fill="#4e4e4e" stroke="#454545"></path><path d="M96 490L85 540L160 495Z" fill="#4d4d4d" stroke="#454545"></path><path d="M0 377L28 447L42 387Z" fill="#4a4a4a" stroke="#454545"></path><path d="M747 561L816 540L810 540Z" fill="#474747" stroke="#454545"></path><path d="M810 540L816 540L787 502Z" fill="#474747" stroke="#454545"></path><path d="M28 447L73 525L96 490Z" fill="#4c4c4c" stroke="#454545"></path><path d="M73 525L85 540L96 490Z" fill="#4c4c4c" stroke="#454545"></path><path d="M882 0L850 -51L813 0Z" fill="#4d4d4d" stroke="#454545"></path><path d="M813 0L850 -51L770 0Z" fill="#474747" stroke="#454545"></path><path d="M896 62L882 0L854 67Z" fill="#454545" stroke="#454545"></path><path d="M85 540L130 594L156 580Z" fill="#464646" stroke="#454545"></path><path d="M156 580L130 594L357 540Z" fill="#474747" stroke="#454545"></path><path d="M933 350L942 268L849 317Z" fill="#474747" stroke="#454545"></path><path d="M960 106L928 79L874 98Z" fill="#494949" stroke="#454545"></path><path d="M960 353L933 350L959 411Z" fill="#4b4b4b" stroke="#454545"></path><path d="M893 400L933 350L849 317Z" fill="#454545" stroke="#454545"></path><path d="M74 0L0 23L84 75Z" fill="#4d4d4d" stroke="#454545"></path><path d="M960 182L867 244L928 246Z" fill="#4b4b4b" stroke="#454545"></path><path d="M896 62L924 -2L882 0Z" fill="#474747" stroke="#454545"></path><path d="M73 525L65 540L85 540Z" fill="#454545" stroke="#454545"></path><path d="M85 540L65 540L130 594Z" fill="#484848" stroke="#454545"></path><path d="M0 503L65 540L73 525Z" fill="#494949" stroke="#454545"></path><path d="M0 496L73 525L28 447Z" fill="#4d4d4d" stroke="#454545"></path><path d="M872 540L912 437L852 431Z" fill="#454545" stroke="#454545"></path><path d="M960 243L928 246L942 268Z" fill="#4d4d4d" stroke="#454545"></path><path d="M960 243L958 219L928 246Z" fill="#4b4b4b" stroke="#454545"></path><path d="M-30 -54L2 0L74 0Z" fill="#4a4a4a" stroke="#454545"></path><path d="M74 0L2 0L0 23Z" fill="#4e4e4e" stroke="#454545"></path><path d="M-30 -54L0 0L2 0Z" fill="#4b4b4b" stroke="#454545"></path><path d="M2 0L0 0L0 23Z" fill="#484848" stroke="#454545"></path><path d="M960 300L960 243L942 268Z" fill="#4b4b4b" stroke="#454545"></path><path d="M960 300L942 268L933 350Z" fill="#454545" stroke="#454545"></path><path d="M977 156L960 182L958 219Z" fill="#474747" stroke="#454545"></path><path d="M958 219L960 182L928 246Z" fill="#484848" stroke="#454545"></path><path d="M960 182L960 169L841 226Z" fill="#4b4b4b" stroke="#454545"></path><path d="M960 320L960 300L933 350Z" fill="#4e4e4e" stroke="#454545"></path><path d="M960 353L960 320L933 350Z" fill="#494949" stroke="#454545"></path><path d="M872 540L924 445L912 437Z" fill="#4c4c4c" stroke="#454545"></path><path d="M959 411L933 350L893 400Z" fill="#474747" stroke="#454545"></path><path d="M960 169L960 106L874 98Z" fill="#474747" stroke="#454545"></path><path d="M960 42L924 -2L896 62Z" fill="#4e4e4e" stroke="#454545"></path><path d="M882 0L924 -2L850 -51Z" fill="#4d4d4d" stroke="#454545"></path><path d="M959 411L893 400L912 437Z" fill="#4d4d4d" stroke="#454545"></path><path d="M747 561L872 540L816 540Z" fill="#454545" stroke="#454545"></path><path d="M816 540L872 540L787 486Z" fill="#474747" stroke="#454545"></path><path d="M960 42L896 62L928 79Z" fill="#474747" stroke="#454545"></path><path d="M-36 445L0 496L28 447Z" fill="#484848" stroke="#454545"></path><path d="M65 540L0 566L130 594Z" fill="#464646" stroke="#454545"></path><path d="M960 169L977 156L960 106Z" fill="#4c4c4c" stroke="#454545"></path><path d="M960 106L960 68L928 79Z" fill="#464646" stroke="#454545"></path><path d="M960 182L977 156L960 169Z" fill="#494949" stroke="#454545"></path><path d="M960 243L977 156L958 219Z" fill="#474747" stroke="#454545"></path><path d="M960 300L977 156L960 243Z" fill="#4b4b4b" stroke="#454545"></path><path d="M960 320L977 156L960 300Z" fill="#454545" stroke="#454545"></path><path d="M994 540L977 156L960 320Z" fill="#4a4a4a" stroke="#454545"></path><path d="M0 496L0 503L73 525Z" fill="#474747" stroke="#454545"></path><path d="M982 125L960 68L960 106Z" fill="#4a4a4a" stroke="#454545"></path><path d="M0 377L-36 445L28 447Z" fill="#464646" stroke="#454545"></path><path d="M0 496L-36 445L0 503Z" fill="#4e4e4e" stroke="#454545"></path><path d="M0 321L-36 445L0 377Z" fill="#454545" stroke="#454545"></path><path d="M0 316L-36 445L0 321Z" fill="#4b4b4b" stroke="#454545"></path><path d="M0 291L-36 445L0 316Z" fill="#474747" stroke="#454545"></path><path d="M0 199L-36 445L0 291Z" fill="#484848" stroke="#454545"></path><path d="M-30 -54L-36 445L0 199Z" fill="#4e4e4e" stroke="#454545"></path><path d="M-30 -54L0 199L0 148Z" fill="#4b4b4b" stroke="#454545"></path><path d="M-30 -54L0 148L0 110Z" fill="#484848" stroke="#454545"></path><path d="M-30 -54L0 110L0 23Z" fill="#454545" stroke="#454545"></path><path d="M960 42L937 -6L924 -2Z" fill="#4b4b4b" stroke="#454545"></path><path d="M924 -2L937 -6L850 -51Z" fill="#474747" stroke="#454545"></path><path d="M924 445L959 411L912 437Z" fill="#474747" stroke="#454545"></path><path d="M994 540L982 125L977 156Z" fill="#474747" stroke="#454545"></path><path d="M960 424L959 411L924 445Z" fill="#454545" stroke="#454545"></path><path d="M977 156L982 125L960 106Z" fill="#464646" stroke="#454545"></path><path d="M960 68L960 42L928 79Z" fill="#4c4c4c" stroke="#454545"></path><path d="M994 540L960 320L960 353Z" fill="#474747" stroke="#454545"></path><path d="M1002 0L960 42L960 68Z" fill="#4c4c4c" stroke="#454545"></path><path d="M960 457L960 424L924 445Z" fill="#4e4e4e" stroke="#454545"></path><path d="M959 411L977 498L960 353Z" fill="#4e4e4e" stroke="#454545"></path><path d="M-36 445L0 540L0 503Z" fill="#474747" stroke="#454545"></path><path d="M0 503L0 540L65 540Z" fill="#4d4d4d" stroke="#454545"></path><path d="M-36 445L0 546L0 540Z" fill="#484848" stroke="#454545"></path><path d="M0 540L0 546L65 540Z" fill="#484848" stroke="#454545"></path><path d="M1002 0L960 0L960 42Z" fill="#4d4d4d" stroke="#454545"></path><path d="M960 42L960 0L937 -6Z" fill="#4a4a4a" stroke="#454545"></path><path d="M937 -6L1002 0L850 -51Z" fill="#4a4a4a" stroke="#454545"></path><path d="M977 498L960 457L924 445Z" fill="#4b4b4b" stroke="#454545"></path><path d="M960 424L977 498L959 411Z" fill="#4e4e4e" stroke="#454545"></path><path d="M186 -22L-30 -54L84 0Z" fill="#484848" stroke="#454545"></path><path d="M0 0L-30 -54L0 23Z" fill="#4d4d4d" stroke="#454545"></path><path d="M599 -41L-30 -54L186 -22Z" fill="#4a4a4a" stroke="#454545"></path><path d="M850 -51L-30 -54L599 -41Z" fill="#4d4d4d" stroke="#454545"></path><path d="M-36 445L0 566L0 546Z" fill="#454545" stroke="#454545"></path><path d="M0 546L0 566L65 540Z" fill="#4a4a4a" stroke="#454545"></path><path d="M960 540L977 498L924 445Z" fill="#464646" stroke="#454545"></path><path d="M960 457L977 498L960 424Z" fill="#474747" stroke="#454545"></path><path d="M994 540L1002 0L982 125Z" fill="#474747" stroke="#454545"></path><path d="M982 125L1002 0L960 68Z" fill="#494949" stroke="#454545"></path><path d="M960 0L1002 0L937 -6Z" fill="#494949" stroke="#454545"></path><path d="M969 564L960 540L872 540Z" fill="#4b4b4b" stroke="#454545"></path><path d="M872 540L960 540L924 445Z" fill="#494949" stroke="#454545"></path><path d="M601 572L969 564L747 561Z" fill="#474747" stroke="#454545"></path><path d="M747 561L969 564L872 540Z" fill="#494949" stroke="#454545"></path><path d="M960 540L994 540L977 498Z" fill="#474747" stroke="#454545"></path><path d="M130 594L969 564L601 572Z" fill="#4c4c4c" stroke="#454545"></path><path d="M969 564L994 540L960 540Z" fill="#4d4d4d" stroke="#454545"></path><path d="M977 498L994 540L960 353Z" fill="#484848" stroke="#454545"></path></g></svg>