<svg id="visual" viewBox="0 0 960 540" width="960" height="540" xmlns="http://www.w3.org/2000/svg" xmlns:xlink="http://www.w3.org/1999/xlink" version="1.1"><rect x="0" y="0" width="960" height="540" fill="#404040"></rect><g transform="translate(22.342729944822793 602.8004708580277)"><path d="M317.7 -513.9C422.8 -426.9 526.6 -357.4 582.6 -258.9C638.7 -160.5 647 -33.2 592.9 59C538.9 151.2 422.5 208.2 344.3 298.2C266.1 388.2 226.2 511.2 147.5 561.4C68.7 611.5 -48.7 588.8 -155.4 548.6C-262 508.4 -357.7 450.6 -457.4 374.6C-557 298.6 -660.6 204.2 -672.8 98.6C-685 -6.9 -605.8 -123.7 -537.8 -234.3C-469.7 -344.9 -412.7 -449.2 -324.9 -544.1C-237.2 -639 -118.6 -724.5 -6.1 -715C106.3 -705.4 212.7 -600.9 317.7 -513.9" fill="#454545"></path></g></svg>