<svg id="visual" viewBox="0 0 960 540" width="960" height="540" xmlns="http://www.w3.org/2000/svg" xmlns:xlink="http://www.w3.org/1999/xlink" version="1.1"><g stroke-width="1" stroke-linejoin="bevel"><path d="M483 246L518 232L477 214Z" fill="#e6e6e6" stroke="#e6e6e6"></path><path d="M518 232L516 216L477 214Z" fill="#e6e6e6" stroke="#e6e6e6"></path><path d="M518 232L527 216L516 216Z" fill="#e6e6e6" stroke="#e6e6e6"></path><path d="M516 216L488 142L477 214Z" fill="#e5e5e5" stroke="#e5e5e5"></path><path d="M483 246L532 258L518 232Z" fill="#e5e5e5" stroke="#e5e5e5"></path><path d="M518 232L532 258L527 216Z" fill="#e4e4e4" stroke="#e4e4e4"></path><path d="M477 214L441 236L483 246Z" fill="#e7e7e7" stroke="#e7e7e7"></path><path d="M483 246L455 287L532 258Z" fill="#e4e4e4" stroke="#e4e4e4"></path><path d="M477 214L437 221L441 236Z" fill="#e7e7e7" stroke="#e7e7e7"></path><path d="M441 236L455 287L483 246Z" fill="#e5e5e5" stroke="#e5e5e5"></path><path d="M527 216L488 142L516 216Z" fill="#e7e7e7" stroke="#e7e7e7"></path><path d="M424 165L413 201L437 221Z" fill="#e8e8e8" stroke="#e8e8e8"></path><path d="M424 165L437 221L477 214Z" fill="#e8e8e8" stroke="#e8e8e8"></path><path d="M437 221L413 201L441 236Z" fill="#e4e4e4" stroke="#e4e4e4"></path><path d="M390 288L451 302L455 287Z" fill="#e5e5e5" stroke="#e5e5e5"></path><path d="M390 288L455 287L441 236Z" fill="#e7e7e7" stroke="#e7e7e7"></path><path d="M455 287L546 307L532 258Z" fill="#e7e7e7" stroke="#e7e7e7"></path><path d="M424 165L409 199L413 201Z" fill="#e7e7e7" stroke="#e7e7e7"></path><path d="M413 201L390 288L441 236Z" fill="#e8e8e8" stroke="#e8e8e8"></path><path d="M532 258L585 202L527 216Z" fill="#e8e8e8" stroke="#e8e8e8"></path><path d="M527 216L553 139L488 142Z" fill="#e8e8e8" stroke="#e8e8e8"></path><path d="M542 322L546 307L455 287Z" fill="#e7e7e7" stroke="#e7e7e7"></path><path d="M532 258L600 224L585 202Z" fill="#e3e3e3" stroke="#e3e3e3"></path><path d="M488 142L424 165L477 214Z" fill="#e4e4e4" stroke="#e4e4e4"></path><path d="M546 307L584 266L532 258Z" fill="#e6e6e6" stroke="#e6e6e6"></path><path d="M542 322L548 309L546 307Z" fill="#e8e8e8" stroke="#e8e8e8"></path><path d="M546 307L548 309L584 266Z" fill="#e4e4e4" stroke="#e4e4e4"></path><path d="M584 266L600 224L532 258Z" fill="#e4e4e4" stroke="#e4e4e4"></path><path d="M579 163L527 216L585 202Z" fill="#e3e3e3" stroke="#e3e3e3"></path><path d="M579 163L553 139L527 216Z" fill="#e8e8e8" stroke="#e8e8e8"></path><path d="M597 193L579 163L585 202Z" fill="#e6e6e6" stroke="#e6e6e6"></path><path d="M451 302L542 322L455 287Z" fill="#e7e7e7" stroke="#e7e7e7"></path><path d="M548 309L601 305L584 266Z" fill="#e5e5e5" stroke="#e5e5e5"></path><path d="M600 224L597 193L585 202Z" fill="#e4e4e4" stroke="#e4e4e4"></path><path d="M584 266L605 229L600 224Z" fill="#e4e4e4" stroke="#e4e4e4"></path><path d="M600 224L605 229L597 193Z" fill="#e9e9e9" stroke="#e9e9e9"></path><path d="M421 140L416 148L424 165Z" fill="#e4e4e4" stroke="#e4e4e4"></path><path d="M424 165L360 182L409 199Z" fill="#e5e5e5" stroke="#e5e5e5"></path><path d="M488 142L421 140L424 165Z" fill="#e5e5e5" stroke="#e5e5e5"></path><path d="M487 77L421 140L488 142Z" fill="#e8e8e8" stroke="#e8e8e8"></path><path d="M631 167L579 147L579 163Z" fill="#e6e6e6" stroke="#e6e6e6"></path><path d="M579 163L579 147L553 139Z" fill="#e4e4e4" stroke="#e4e4e4"></path><path d="M360 182L390 288L409 199Z" fill="#e4e4e4" stroke="#e4e4e4"></path><path d="M409 199L390 288L413 201Z" fill="#e4e4e4" stroke="#e4e4e4"></path><path d="M578 346L601 305L548 309Z" fill="#e9e9e9" stroke="#e9e9e9"></path><path d="M584 266L650 227L605 229Z" fill="#e4e4e4" stroke="#e4e4e4"></path><path d="M390 288L428 342L451 302Z" fill="#e9e9e9" stroke="#e9e9e9"></path><path d="M451 302L464 387L542 322Z" fill="#e8e8e8" stroke="#e8e8e8"></path><path d="M557 101L551 104L553 139Z" fill="#e4e4e4" stroke="#e4e4e4"></path><path d="M553 139L551 104L488 142Z" fill="#e7e7e7" stroke="#e7e7e7"></path><path d="M579 147L557 101L553 139Z" fill="#e6e6e6" stroke="#e6e6e6"></path><path d="M551 104L487 77L488 142Z" fill="#e6e6e6" stroke="#e6e6e6"></path><path d="M337 123L360 182L416 148Z" fill="#e8e8e8" stroke="#e8e8e8"></path><path d="M416 148L360 182L424 165Z" fill="#e9e9e9" stroke="#e9e9e9"></path><path d="M484 403L578 346L542 322Z" fill="#e8e8e8" stroke="#e8e8e8"></path><path d="M542 322L578 346L548 309Z" fill="#e3e3e3" stroke="#e3e3e3"></path><path d="M650 227L631 167L597 193Z" fill="#e5e5e5" stroke="#e5e5e5"></path><path d="M597 193L631 167L579 163Z" fill="#e3e3e3" stroke="#e3e3e3"></path><path d="M579 147L620 87L557 101Z" fill="#e8e8e8" stroke="#e8e8e8"></path><path d="M650 227L597 193L605 229Z" fill="#e6e6e6" stroke="#e6e6e6"></path><path d="M576 46L487 77L551 104Z" fill="#e6e6e6" stroke="#e6e6e6"></path><path d="M421 140L383 95L416 148Z" fill="#e3e3e3" stroke="#e3e3e3"></path><path d="M662 306L650 227L601 305Z" fill="#e3e3e3" stroke="#e3e3e3"></path><path d="M601 305L650 227L584 266Z" fill="#e8e8e8" stroke="#e8e8e8"></path><path d="M390 288L399 355L428 342Z" fill="#e8e8e8" stroke="#e8e8e8"></path><path d="M428 342L464 387L451 302Z" fill="#e7e7e7" stroke="#e7e7e7"></path><path d="M395 359L399 355L368 346Z" fill="#e6e6e6" stroke="#e6e6e6"></path><path d="M670 197L644 162L631 167Z" fill="#e7e7e7" stroke="#e7e7e7"></path><path d="M631 167L650 128L579 147Z" fill="#e5e5e5" stroke="#e5e5e5"></path><path d="M433 390L464 387L428 342Z" fill="#e4e4e4" stroke="#e4e4e4"></path><path d="M368 346L399 355L390 288Z" fill="#e4e4e4" stroke="#e4e4e4"></path><path d="M399 355L433 390L428 342Z" fill="#e8e8e8" stroke="#e8e8e8"></path><path d="M487 77L383 95L421 140Z" fill="#e9e9e9" stroke="#e9e9e9"></path><path d="M357 353L368 346L299 310Z" fill="#e5e5e5" stroke="#e5e5e5"></path><path d="M395 359L433 390L399 355Z" fill="#e6e6e6" stroke="#e6e6e6"></path><path d="M336 489L433 390L395 359Z" fill="#e4e4e4" stroke="#e4e4e4"></path><path d="M470 427L484 403L464 387Z" fill="#e3e3e3" stroke="#e3e3e3"></path><path d="M464 387L484 403L542 322Z" fill="#e9e9e9" stroke="#e9e9e9"></path><path d="M650 227L670 197L631 167Z" fill="#e7e7e7" stroke="#e7e7e7"></path><path d="M732 214L670 197L650 227Z" fill="#e4e4e4" stroke="#e4e4e4"></path><path d="M667 379L631 344L613 433Z" fill="#e5e5e5" stroke="#e5e5e5"></path><path d="M578 346L631 344L601 305Z" fill="#e5e5e5" stroke="#e5e5e5"></path><path d="M706 108L650 128L719 116Z" fill="#e8e8e8" stroke="#e8e8e8"></path><path d="M644 162L650 128L631 167Z" fill="#e4e4e4" stroke="#e4e4e4"></path><path d="M557 101L576 46L551 104Z" fill="#e8e8e8" stroke="#e8e8e8"></path><path d="M631 344L662 306L601 305Z" fill="#e7e7e7" stroke="#e7e7e7"></path><path d="M308 140L316 187L360 182Z" fill="#e5e5e5" stroke="#e5e5e5"></path><path d="M360 182L291 226L390 288Z" fill="#e7e7e7" stroke="#e7e7e7"></path><path d="M487 77L379 83L383 95Z" fill="#e9e9e9" stroke="#e9e9e9"></path><path d="M383 95L337 123L416 148Z" fill="#e9e9e9" stroke="#e9e9e9"></path><path d="M650 128L620 87L579 147Z" fill="#e5e5e5" stroke="#e5e5e5"></path><path d="M299 310L368 346L390 288Z" fill="#e5e5e5" stroke="#e5e5e5"></path><path d="M368 346L357 353L395 359Z" fill="#e8e8e8" stroke="#e8e8e8"></path><path d="M332 108L337 123L383 95Z" fill="#e5e5e5" stroke="#e5e5e5"></path><path d="M620 87L579 51L557 101Z" fill="#e7e7e7" stroke="#e7e7e7"></path><path d="M487 77L421 0L379 83Z" fill="#e5e5e5" stroke="#e5e5e5"></path><path d="M669 -19L576 46L579 51Z" fill="#e6e6e6" stroke="#e6e6e6"></path><path d="M579 51L576 46L557 101Z" fill="#e4e4e4" stroke="#e4e4e4"></path><path d="M433 390L470 427L464 387Z" fill="#e9e9e9" stroke="#e9e9e9"></path><path d="M577 455L613 433L578 346Z" fill="#e6e6e6" stroke="#e6e6e6"></path><path d="M435 470L470 427L433 390Z" fill="#e6e6e6" stroke="#e6e6e6"></path><path d="M379 83L332 108L383 95Z" fill="#e7e7e7" stroke="#e7e7e7"></path><path d="M337 123L308 140L360 182Z" fill="#e3e3e3" stroke="#e3e3e3"></path><path d="M470 427L476 429L484 403Z" fill="#e8e8e8" stroke="#e8e8e8"></path><path d="M225 157L292 215L316 187Z" fill="#e8e8e8" stroke="#e8e8e8"></path><path d="M316 187L291 226L360 182Z" fill="#e5e5e5" stroke="#e5e5e5"></path><path d="M292 215L291 226L316 187Z" fill="#e4e4e4" stroke="#e4e4e4"></path><path d="M298 124L308 140L337 123Z" fill="#e4e4e4" stroke="#e4e4e4"></path><path d="M291 226L297 291L390 288Z" fill="#e7e7e7" stroke="#e7e7e7"></path><path d="M297 291L299 310L390 288Z" fill="#e4e4e4" stroke="#e4e4e4"></path><path d="M286 304L299 310L297 291Z" fill="#e5e5e5" stroke="#e5e5e5"></path><path d="M286 304L300 325L299 310Z" fill="#e7e7e7" stroke="#e7e7e7"></path><path d="M299 310L300 325L357 353Z" fill="#e6e6e6" stroke="#e6e6e6"></path><path d="M357 353L317 377L395 359Z" fill="#e6e6e6" stroke="#e6e6e6"></path><path d="M310 65L316 100L332 108Z" fill="#e4e4e4" stroke="#e4e4e4"></path><path d="M332 108L298 124L337 123Z" fill="#e5e5e5" stroke="#e5e5e5"></path><path d="M308 140L225 157L316 187Z" fill="#e6e6e6" stroke="#e6e6e6"></path><path d="M316 100L298 124L332 108Z" fill="#e3e3e3" stroke="#e3e3e3"></path><path d="M212 200L257 262L291 226Z" fill="#e4e4e4" stroke="#e4e4e4"></path><path d="M257 262L286 304L297 291Z" fill="#e9e9e9" stroke="#e9e9e9"></path><path d="M576 46L521 5L487 77Z" fill="#e8e8e8" stroke="#e8e8e8"></path><path d="M379 83L310 65L332 108Z" fill="#e5e5e5" stroke="#e5e5e5"></path><path d="M541 0L523 1L521 5Z" fill="#e6e6e6" stroke="#e6e6e6"></path><path d="M521 5L465 0L487 77Z" fill="#e7e7e7" stroke="#e7e7e7"></path><path d="M613 433L631 344L578 346Z" fill="#e4e4e4" stroke="#e4e4e4"></path><path d="M631 344L679 377L662 306Z" fill="#e3e3e3" stroke="#e3e3e3"></path><path d="M734 279L732 214L650 227Z" fill="#e5e5e5" stroke="#e5e5e5"></path><path d="M523 1L465 0L521 5Z" fill="#e6e6e6" stroke="#e6e6e6"></path><path d="M576 46L541 0L521 5Z" fill="#e4e4e4" stroke="#e4e4e4"></path><path d="M523 1L541 0L465 0Z" fill="#e8e8e8" stroke="#e8e8e8"></path><path d="M545 0L541 0L576 46Z" fill="#e9e9e9" stroke="#e9e9e9"></path><path d="M550 0L545 0L576 46Z" fill="#e8e8e8" stroke="#e8e8e8"></path><path d="M305 380L317 377L300 325Z" fill="#e7e7e7" stroke="#e7e7e7"></path><path d="M300 325L317 377L357 353Z" fill="#e3e3e3" stroke="#e3e3e3"></path><path d="M470 427L435 470L476 429Z" fill="#e5e5e5" stroke="#e5e5e5"></path><path d="M669 -19L550 0L576 46Z" fill="#e4e4e4" stroke="#e4e4e4"></path><path d="M734 279L650 227L662 306Z" fill="#e6e6e6" stroke="#e6e6e6"></path><path d="M719 116L650 128L644 162Z" fill="#e3e3e3" stroke="#e3e3e3"></path><path d="M650 128L685 52L620 87Z" fill="#e3e3e3" stroke="#e3e3e3"></path><path d="M620 87L685 52L579 51Z" fill="#e6e6e6" stroke="#e6e6e6"></path><path d="M649 429L679 377L667 379Z" fill="#e7e7e7" stroke="#e7e7e7"></path><path d="M667 379L679 377L631 344Z" fill="#e3e3e3" stroke="#e3e3e3"></path><path d="M577 455L578 346L484 403Z" fill="#e7e7e7" stroke="#e7e7e7"></path><path d="M465 0L421 0L487 77Z" fill="#e8e8e8" stroke="#e8e8e8"></path><path d="M212 200L291 226L292 215Z" fill="#e7e7e7" stroke="#e7e7e7"></path><path d="M291 226L257 262L297 291Z" fill="#e5e5e5" stroke="#e5e5e5"></path><path d="M271 401L305 380L240 392Z" fill="#e3e3e3" stroke="#e3e3e3"></path><path d="M719 116L644 162L670 197Z" fill="#e4e4e4" stroke="#e4e4e4"></path><path d="M476 429L577 455L484 403Z" fill="#e7e7e7" stroke="#e7e7e7"></path><path d="M757 328L734 279L662 306Z" fill="#e5e5e5" stroke="#e5e5e5"></path><path d="M305 380L300 325L240 392Z" fill="#e5e5e5" stroke="#e5e5e5"></path><path d="M336 489L435 470L433 390Z" fill="#e5e5e5" stroke="#e5e5e5"></path><path d="M316 100L305 69L298 124Z" fill="#e5e5e5" stroke="#e5e5e5"></path><path d="M212 200L231 285L257 262Z" fill="#e8e8e8" stroke="#e8e8e8"></path><path d="M344 0L310 65L379 83Z" fill="#e8e8e8" stroke="#e8e8e8"></path><path d="M310 65L305 69L316 100Z" fill="#e8e8e8" stroke="#e8e8e8"></path><path d="M732 214L719 116L670 197Z" fill="#e7e7e7" stroke="#e7e7e7"></path><path d="M706 108L685 52L650 128Z" fill="#e6e6e6" stroke="#e6e6e6"></path><path d="M336 489L395 359L317 377Z" fill="#e9e9e9" stroke="#e9e9e9"></path><path d="M574 508L580 496L577 455Z" fill="#e9e9e9" stroke="#e9e9e9"></path><path d="M628 452L639 436L613 433Z" fill="#e4e4e4" stroke="#e4e4e4"></path><path d="M613 433L649 429L667 379Z" fill="#e6e6e6" stroke="#e6e6e6"></path><path d="M639 436L649 429L613 433Z" fill="#e6e6e6" stroke="#e6e6e6"></path><path d="M746 109L685 52L706 108Z" fill="#e4e4e4" stroke="#e4e4e4"></path><path d="M344 0L298 57L310 65Z" fill="#e3e3e3" stroke="#e3e3e3"></path><path d="M310 65L298 57L305 69Z" fill="#e4e4e4" stroke="#e4e4e4"></path><path d="M305 69L298 57L298 124Z" fill="#e8e8e8" stroke="#e8e8e8"></path><path d="M577 455L628 452L613 433Z" fill="#e3e3e3" stroke="#e3e3e3"></path><path d="M639 436L628 452L649 429Z" fill="#e5e5e5" stroke="#e5e5e5"></path><path d="M580 496L628 452L577 455Z" fill="#e8e8e8" stroke="#e8e8e8"></path><path d="M757 328L756 293L734 279Z" fill="#e6e6e6" stroke="#e6e6e6"></path><path d="M734 279L765 264L732 214Z" fill="#e3e3e3" stroke="#e3e3e3"></path><path d="M789 134L746 109L719 116Z" fill="#e8e8e8" stroke="#e8e8e8"></path><path d="M757 328L662 306L679 377Z" fill="#e9e9e9" stroke="#e9e9e9"></path><path d="M225 157L308 140L298 124Z" fill="#e3e3e3" stroke="#e3e3e3"></path><path d="M257 262L231 285L286 304Z" fill="#e4e4e4" stroke="#e4e4e4"></path><path d="M756 293L765 264L734 279Z" fill="#e8e8e8" stroke="#e8e8e8"></path><path d="M716 444L710 396L649 429Z" fill="#e4e4e4" stroke="#e4e4e4"></path><path d="M649 429L710 396L679 377Z" fill="#e6e6e6" stroke="#e6e6e6"></path><path d="M421 0L344 0L379 83Z" fill="#e8e8e8" stroke="#e8e8e8"></path><path d="M789 134L719 116L732 214Z" fill="#e5e5e5" stroke="#e5e5e5"></path><path d="M719 116L746 109L706 108Z" fill="#e3e3e3" stroke="#e3e3e3"></path><path d="M195 136L225 157L192 127Z" fill="#e7e7e7" stroke="#e7e7e7"></path><path d="M756 293L784 281L765 264Z" fill="#e4e4e4" stroke="#e4e4e4"></path><path d="M710 396L757 328L679 377Z" fill="#e3e3e3" stroke="#e3e3e3"></path><path d="M574 508L577 455L498 524Z" fill="#e8e8e8" stroke="#e8e8e8"></path><path d="M692 509L716 444L649 429Z" fill="#e5e5e5" stroke="#e5e5e5"></path><path d="M424 519L435 503L435 470Z" fill="#e6e6e6" stroke="#e6e6e6"></path><path d="M435 470L498 524L476 429Z" fill="#e7e7e7" stroke="#e7e7e7"></path><path d="M757 328L768 307L756 293Z" fill="#e8e8e8" stroke="#e8e8e8"></path><path d="M240 392L300 325L286 304Z" fill="#e9e9e9" stroke="#e9e9e9"></path><path d="M305 380L280 435L317 377Z" fill="#e5e5e5" stroke="#e5e5e5"></path><path d="M225 157L212 200L292 215Z" fill="#e7e7e7" stroke="#e7e7e7"></path><path d="M195 136L216 160L225 157Z" fill="#e4e4e4" stroke="#e4e4e4"></path><path d="M225 157L216 160L212 200Z" fill="#e8e8e8" stroke="#e8e8e8"></path><path d="M498 524L577 455L476 429Z" fill="#e3e3e3" stroke="#e3e3e3"></path><path d="M580 496L602 540L628 452Z" fill="#e9e9e9" stroke="#e9e9e9"></path><path d="M778 311L784 281L768 307Z" fill="#e7e7e7" stroke="#e7e7e7"></path><path d="M768 307L784 281L756 293Z" fill="#e4e4e4" stroke="#e4e4e4"></path><path d="M765 264L799 186L732 214Z" fill="#e6e6e6" stroke="#e6e6e6"></path><path d="M848 336L851 310L833 293Z" fill="#e4e4e4" stroke="#e4e4e4"></path><path d="M757 328L778 311L768 307Z" fill="#e4e4e4" stroke="#e4e4e4"></path><path d="M424 519L447 519L435 503Z" fill="#e6e6e6" stroke="#e6e6e6"></path><path d="M435 503L447 519L435 470Z" fill="#e5e5e5" stroke="#e5e5e5"></path><path d="M447 519L498 524L435 470Z" fill="#e5e5e5" stroke="#e5e5e5"></path><path d="M247 404L280 435L271 401Z" fill="#e4e4e4" stroke="#e4e4e4"></path><path d="M271 401L280 435L305 380Z" fill="#e9e9e9" stroke="#e9e9e9"></path><path d="M344 0L299 0L298 57Z" fill="#e4e4e4" stroke="#e4e4e4"></path><path d="M192 127L225 157L298 124Z" fill="#e4e4e4" stroke="#e4e4e4"></path><path d="M336 489L424 519L435 470Z" fill="#e4e4e4" stroke="#e4e4e4"></path><path d="M447 519L489 540L498 524Z" fill="#e5e5e5" stroke="#e5e5e5"></path><path d="M701 0L669 -19L685 52Z" fill="#e4e4e4" stroke="#e4e4e4"></path><path d="M685 52L669 -19L579 51Z" fill="#e4e4e4" stroke="#e4e4e4"></path><path d="M550 0L669 -19L545 0Z" fill="#e5e5e5" stroke="#e5e5e5"></path><path d="M545 0L669 -19L541 0Z" fill="#e8e8e8" stroke="#e8e8e8"></path><path d="M541 0L669 -19L465 0Z" fill="#e9e9e9" stroke="#e9e9e9"></path><path d="M465 0L719 -32L421 0Z" fill="#e9e9e9" stroke="#e9e9e9"></path><path d="M421 0L0 -53L344 0Z" fill="#e8e8e8" stroke="#e8e8e8"></path><path d="M344 0L0 -53L299 0Z" fill="#e4e4e4" stroke="#e4e4e4"></path><path d="M207 407L240 392L147 352Z" fill="#e3e3e3" stroke="#e3e3e3"></path><path d="M231 285L240 392L286 304Z" fill="#e9e9e9" stroke="#e9e9e9"></path><path d="M240 392L247 404L271 401Z" fill="#e7e7e7" stroke="#e7e7e7"></path><path d="M818 219L799 186L765 264Z" fill="#e9e9e9" stroke="#e9e9e9"></path><path d="M728 0L701 0L740 12Z" fill="#e3e3e3" stroke="#e3e3e3"></path><path d="M701 0L685 52L740 12Z" fill="#e7e7e7" stroke="#e7e7e7"></path><path d="M292 460L317 377L280 435Z" fill="#e7e7e7" stroke="#e7e7e7"></path><path d="M292 460L336 489L317 377Z" fill="#e7e7e7" stroke="#e7e7e7"></path><path d="M799 186L789 134L732 214Z" fill="#e8e8e8" stroke="#e8e8e8"></path><path d="M692 509L649 429L628 452Z" fill="#e3e3e3" stroke="#e3e3e3"></path><path d="M710 396L774 448L757 328Z" fill="#e7e7e7" stroke="#e7e7e7"></path><path d="M247 454L292 460L280 435Z" fill="#e4e4e4" stroke="#e4e4e4"></path><path d="M424 519L489 540L447 519Z" fill="#e8e8e8" stroke="#e8e8e8"></path><path d="M498 524L548 540L574 508Z" fill="#e3e3e3" stroke="#e3e3e3"></path><path d="M299 0L264 16L298 57Z" fill="#e4e4e4" stroke="#e4e4e4"></path><path d="M216 160L183 203L212 200Z" fill="#e4e4e4" stroke="#e4e4e4"></path><path d="M212 200L183 203L231 285Z" fill="#e4e4e4" stroke="#e4e4e4"></path><path d="M195 136L183 203L216 160Z" fill="#e8e8e8" stroke="#e8e8e8"></path><path d="M192 127L298 124L222 38Z" fill="#e3e3e3" stroke="#e3e3e3"></path><path d="M489 540L548 540L498 524Z" fill="#e4e4e4" stroke="#e4e4e4"></path><path d="M574 508L599 540L580 496Z" fill="#e4e4e4" stroke="#e4e4e4"></path><path d="M222 38L298 124L298 57Z" fill="#e4e4e4" stroke="#e4e4e4"></path><path d="M195 136L161 123L183 203Z" fill="#e7e7e7" stroke="#e7e7e7"></path><path d="M818 219L813 179L799 186Z" fill="#e3e3e3" stroke="#e3e3e3"></path><path d="M799 186L813 179L789 134Z" fill="#e8e8e8" stroke="#e8e8e8"></path><path d="M818 219L765 264L815 272Z" fill="#e3e3e3" stroke="#e3e3e3"></path><path d="M815 272L765 264L784 281Z" fill="#e7e7e7" stroke="#e7e7e7"></path><path d="M829 292L784 281L778 311Z" fill="#e9e9e9" stroke="#e9e9e9"></path><path d="M829 292L815 272L784 281Z" fill="#e5e5e5" stroke="#e5e5e5"></path><path d="M740 12L685 52L751 21Z" fill="#e8e8e8" stroke="#e8e8e8"></path><path d="M701 0L719 -32L669 -19Z" fill="#e8e8e8" stroke="#e8e8e8"></path><path d="M685 52L746 109L751 21Z" fill="#e5e5e5" stroke="#e5e5e5"></path><path d="M548 540L583 540L574 508Z" fill="#e7e7e7" stroke="#e7e7e7"></path><path d="M751 21L746 109L806 111Z" fill="#e3e3e3" stroke="#e3e3e3"></path><path d="M806 111L746 109L789 134Z" fill="#e5e5e5" stroke="#e5e5e5"></path><path d="M789 0L719 -32L728 0Z" fill="#e3e3e3" stroke="#e3e3e3"></path><path d="M583 540L599 540L574 508Z" fill="#e6e6e6" stroke="#e6e6e6"></path><path d="M599 540L602 540L580 496Z" fill="#e4e4e4" stroke="#e4e4e4"></path><path d="M829 157L789 134L813 179Z" fill="#e5e5e5" stroke="#e5e5e5"></path><path d="M829 157L806 111L789 134Z" fill="#e6e6e6" stroke="#e6e6e6"></path><path d="M264 16L222 38L298 57Z" fill="#e9e9e9" stroke="#e9e9e9"></path><path d="M336 489L382 540L424 519Z" fill="#e8e8e8" stroke="#e8e8e8"></path><path d="M424 519L382 540L489 540Z" fill="#e3e3e3" stroke="#e3e3e3"></path><path d="M372 540L382 540L336 489Z" fill="#e4e4e4" stroke="#e4e4e4"></path><path d="M264 16L231 22L222 38Z" fill="#e9e9e9" stroke="#e9e9e9"></path><path d="M225 0L231 22L264 16Z" fill="#e6e6e6" stroke="#e6e6e6"></path><path d="M365 540L372 540L336 489Z" fill="#e3e3e3" stroke="#e3e3e3"></path><path d="M247 404L247 454L280 435Z" fill="#e5e5e5" stroke="#e5e5e5"></path><path d="M292 460L281 513L336 489Z" fill="#e5e5e5" stroke="#e5e5e5"></path><path d="M213 433L247 454L247 404Z" fill="#e5e5e5" stroke="#e5e5e5"></path><path d="M207 407L247 404L240 392Z" fill="#e6e6e6" stroke="#e6e6e6"></path><path d="M302 540L365 540L336 489Z" fill="#e5e5e5" stroke="#e5e5e5"></path><path d="M829 292L848 336L833 293Z" fill="#e4e4e4" stroke="#e4e4e4"></path><path d="M815 272L843 251L818 219Z" fill="#e9e9e9" stroke="#e9e9e9"></path><path d="M818 219L829 157L813 179Z" fill="#e8e8e8" stroke="#e8e8e8"></path><path d="M147 352L240 392L231 285Z" fill="#e4e4e4" stroke="#e4e4e4"></path><path d="M871 142L829 157L905 185Z" fill="#e8e8e8" stroke="#e8e8e8"></path><path d="M789 0L740 12L751 21Z" fill="#e9e9e9" stroke="#e9e9e9"></path><path d="M789 0L728 0L740 12Z" fill="#e3e3e3" stroke="#e3e3e3"></path><path d="M728 0L719 -32L701 0Z" fill="#e7e7e7" stroke="#e7e7e7"></path><path d="M669 -19L719 -32L465 0Z" fill="#e5e5e5" stroke="#e5e5e5"></path><path d="M602 540L692 509L628 452Z" fill="#e7e7e7" stroke="#e7e7e7"></path><path d="M829 292L778 311L848 336Z" fill="#e5e5e5" stroke="#e5e5e5"></path><path d="M774 448L710 396L716 444Z" fill="#e7e7e7" stroke="#e7e7e7"></path><path d="M829 292L833 293L815 272Z" fill="#e4e4e4" stroke="#e4e4e4"></path><path d="M833 293L843 251L815 272Z" fill="#e5e5e5" stroke="#e5e5e5"></path><path d="M207 407L213 433L247 404Z" fill="#e3e3e3" stroke="#e3e3e3"></path><path d="M247 454L281 513L292 460Z" fill="#e5e5e5" stroke="#e5e5e5"></path><path d="M158 73L192 127L222 38Z" fill="#e7e7e7" stroke="#e7e7e7"></path><path d="M158 73L161 123L192 127Z" fill="#e9e9e9" stroke="#e9e9e9"></path><path d="M192 127L161 123L195 136Z" fill="#e6e6e6" stroke="#e6e6e6"></path><path d="M183 203L134 249L231 285Z" fill="#e5e5e5" stroke="#e5e5e5"></path><path d="M225 0L211 22L231 22Z" fill="#e5e5e5" stroke="#e5e5e5"></path><path d="M231 22L211 22L222 38Z" fill="#e8e8e8" stroke="#e8e8e8"></path><path d="M870 269L846 250L843 251Z" fill="#e4e4e4" stroke="#e4e4e4"></path><path d="M843 251L846 250L818 219Z" fill="#e5e5e5" stroke="#e5e5e5"></path><path d="M299 0L225 0L264 16Z" fill="#e3e3e3" stroke="#e3e3e3"></path><path d="M0 -53L225 0L299 0Z" fill="#e4e4e4" stroke="#e4e4e4"></path><path d="M748 540L774 448L716 444Z" fill="#e5e5e5" stroke="#e5e5e5"></path><path d="M230 521L281 513L247 454Z" fill="#e8e8e8" stroke="#e8e8e8"></path><path d="M602 540L620 565L692 509Z" fill="#e8e8e8" stroke="#e8e8e8"></path><path d="M692 509L748 540L716 444Z" fill="#e5e5e5" stroke="#e5e5e5"></path><path d="M599 540L620 565L602 540Z" fill="#e4e4e4" stroke="#e4e4e4"></path><path d="M583 540L620 565L599 540Z" fill="#e8e8e8" stroke="#e8e8e8"></path><path d="M626 575L620 565L583 540Z" fill="#e5e5e5" stroke="#e5e5e5"></path><path d="M626 575L583 540L548 540Z" fill="#e8e8e8" stroke="#e8e8e8"></path><path d="M626 575L548 540L489 540Z" fill="#e4e4e4" stroke="#e4e4e4"></path><path d="M626 575L489 540L382 540Z" fill="#e3e3e3" stroke="#e3e3e3"></path><path d="M626 575L382 540L372 540Z" fill="#e6e6e6" stroke="#e6e6e6"></path><path d="M829 157L842 127L806 111Z" fill="#e5e5e5" stroke="#e5e5e5"></path><path d="M806 111L789 0L751 21Z" fill="#e7e7e7" stroke="#e7e7e7"></path><path d="M871 142L842 127L829 157Z" fill="#e3e3e3" stroke="#e3e3e3"></path><path d="M95 184L134 249L183 203Z" fill="#e8e8e8" stroke="#e8e8e8"></path><path d="M120 445L174 479L213 433Z" fill="#e4e4e4" stroke="#e4e4e4"></path><path d="M848 336L778 311L846 380Z" fill="#e8e8e8" stroke="#e8e8e8"></path><path d="M833 293L870 269L843 251Z" fill="#e3e3e3" stroke="#e3e3e3"></path><path d="M905 185L829 157L818 219Z" fill="#e6e6e6" stroke="#e6e6e6"></path><path d="M281 513L302 540L336 489Z" fill="#e8e8e8" stroke="#e8e8e8"></path><path d="M365 540L626 575L372 540Z" fill="#e4e4e4" stroke="#e4e4e4"></path><path d="M298 540L302 540L281 513Z" fill="#e5e5e5" stroke="#e5e5e5"></path><path d="M846 380L778 311L757 328Z" fill="#e5e5e5" stroke="#e5e5e5"></path><path d="M230 521L298 540L281 513Z" fill="#e3e3e3" stroke="#e3e3e3"></path><path d="M302 540L626 575L365 540Z" fill="#e4e4e4" stroke="#e4e4e4"></path><path d="M123 281L147 352L231 285Z" fill="#e5e5e5" stroke="#e5e5e5"></path><path d="M174 479L230 521L247 454Z" fill="#e6e6e6" stroke="#e6e6e6"></path><path d="M811 0L789 0L806 111Z" fill="#e7e7e7" stroke="#e7e7e7"></path><path d="M165 31L158 73L222 38Z" fill="#e5e5e5" stroke="#e5e5e5"></path><path d="M87 232L111 274L134 249Z" fill="#e7e7e7" stroke="#e7e7e7"></path><path d="M165 31L222 38L211 22Z" fill="#e9e9e9" stroke="#e9e9e9"></path><path d="M92 563L626 575L302 540Z" fill="#e4e4e4" stroke="#e4e4e4"></path><path d="M620 565L696 544L692 509Z" fill="#e9e9e9" stroke="#e9e9e9"></path><path d="M626 575L696 544L620 565Z" fill="#e7e7e7" stroke="#e7e7e7"></path><path d="M0 -53L196 0L225 0Z" fill="#e8e8e8" stroke="#e8e8e8"></path><path d="M225 0L196 0L211 22Z" fill="#e7e7e7" stroke="#e7e7e7"></path><path d="M111 274L123 281L134 249Z" fill="#e7e7e7" stroke="#e7e7e7"></path><path d="M134 249L123 281L231 285Z" fill="#e6e6e6" stroke="#e6e6e6"></path><path d="M894 272L870 269L851 310Z" fill="#e3e3e3" stroke="#e3e3e3"></path><path d="M851 310L870 269L833 293Z" fill="#e9e9e9" stroke="#e9e9e9"></path><path d="M127 380L148 382L147 352Z" fill="#e4e4e4" stroke="#e4e4e4"></path><path d="M147 352L148 382L207 407Z" fill="#e5e5e5" stroke="#e5e5e5"></path><path d="M868 95L853 93L842 127Z" fill="#e8e8e8" stroke="#e8e8e8"></path><path d="M842 127L853 93L806 111Z" fill="#e3e3e3" stroke="#e3e3e3"></path><path d="M774 448L846 380L757 328Z" fill="#e8e8e8" stroke="#e8e8e8"></path><path d="M881 372L894 272L851 310Z" fill="#e8e8e8" stroke="#e8e8e8"></path><path d="M816 445L846 380L774 448Z" fill="#e5e5e5" stroke="#e5e5e5"></path><path d="M196 0L186 0L211 22Z" fill="#e8e8e8" stroke="#e8e8e8"></path><path d="M0 -53L186 0L196 0Z" fill="#e7e7e7" stroke="#e7e7e7"></path><path d="M186 0L165 31L211 22Z" fill="#e8e8e8" stroke="#e8e8e8"></path><path d="M95 184L183 203L161 123Z" fill="#e7e7e7" stroke="#e7e7e7"></path><path d="M905 185L818 219L846 250Z" fill="#e4e4e4" stroke="#e4e4e4"></path><path d="M816 467L816 445L774 448Z" fill="#e5e5e5" stroke="#e5e5e5"></path><path d="M95 184L161 123L100 126Z" fill="#e3e3e3" stroke="#e3e3e3"></path><path d="M78 344L127 380L147 352Z" fill="#e7e7e7" stroke="#e7e7e7"></path><path d="M789 0L811 0L719 -32Z" fill="#e8e8e8" stroke="#e8e8e8"></path><path d="M853 93L811 0L806 111Z" fill="#e6e6e6" stroke="#e6e6e6"></path><path d="M853 93L813 0L811 0Z" fill="#e5e5e5" stroke="#e5e5e5"></path><path d="M811 0L813 0L719 -32Z" fill="#e7e7e7" stroke="#e7e7e7"></path><path d="M871 142L868 95L842 127Z" fill="#e4e4e4" stroke="#e4e4e4"></path><path d="M853 93L835 0L813 0Z" fill="#e8e8e8" stroke="#e8e8e8"></path><path d="M174 479L247 454L213 433Z" fill="#e8e8e8" stroke="#e8e8e8"></path><path d="M852 414L859 390L846 380Z" fill="#e4e4e4" stroke="#e4e4e4"></path><path d="M846 380L881 372L848 336Z" fill="#e8e8e8" stroke="#e8e8e8"></path><path d="M78 304L147 352L123 281Z" fill="#e3e3e3" stroke="#e3e3e3"></path><path d="M120 445L213 433L207 407Z" fill="#e5e5e5" stroke="#e5e5e5"></path><path d="M815 490L816 467L774 448Z" fill="#e7e7e7" stroke="#e7e7e7"></path><path d="M816 445L852 414L846 380Z" fill="#e7e7e7" stroke="#e7e7e7"></path><path d="M881 372L851 310L848 336Z" fill="#e9e9e9" stroke="#e9e9e9"></path><path d="M870 269L905 185L846 250Z" fill="#e8e8e8" stroke="#e8e8e8"></path><path d="M871 142L884 102L868 95Z" fill="#e4e4e4" stroke="#e4e4e4"></path><path d="M696 544L748 540L692 509Z" fill="#e8e8e8" stroke="#e8e8e8"></path><path d="M626 575L748 540L696 544Z" fill="#e4e4e4" stroke="#e4e4e4"></path><path d="M816 467L852 414L816 445Z" fill="#e5e5e5" stroke="#e5e5e5"></path><path d="M859 390L881 372L846 380Z" fill="#e7e7e7" stroke="#e7e7e7"></path><path d="M100 126L161 123L158 73Z" fill="#e5e5e5" stroke="#e5e5e5"></path><path d="M111 274L83 295L123 281Z" fill="#e7e7e7" stroke="#e7e7e7"></path><path d="M960 145L884 102L871 142Z" fill="#e7e7e7" stroke="#e7e7e7"></path><path d="M868 95L835 0L853 93Z" fill="#e6e6e6" stroke="#e6e6e6"></path><path d="M960 17L835 0L868 95Z" fill="#e4e4e4" stroke="#e4e4e4"></path><path d="M813 0L835 0L719 -32Z" fill="#e8e8e8" stroke="#e8e8e8"></path><path d="M95 8L100 126L158 73Z" fill="#e5e5e5" stroke="#e5e5e5"></path><path d="M133 17L158 73L165 31Z" fill="#e3e3e3" stroke="#e3e3e3"></path><path d="M120 445L207 407L148 382Z" fill="#e5e5e5" stroke="#e5e5e5"></path><path d="M53 198L87 232L95 184Z" fill="#e5e5e5" stroke="#e5e5e5"></path><path d="M95 184L87 232L134 249Z" fill="#e4e4e4" stroke="#e4e4e4"></path><path d="M894 272L905 185L870 269Z" fill="#e4e4e4" stroke="#e4e4e4"></path><path d="M894 272L881 372L960 332Z" fill="#e7e7e7" stroke="#e7e7e7"></path><path d="M852 414L881 372L859 390Z" fill="#e9e9e9" stroke="#e9e9e9"></path><path d="M748 540L815 490L774 448Z" fill="#e5e5e5" stroke="#e5e5e5"></path><path d="M816 467L882 540L852 414Z" fill="#e6e6e6" stroke="#e6e6e6"></path><path d="M59 259L83 295L111 274Z" fill="#e5e5e5" stroke="#e5e5e5"></path><path d="M181 540L194 526L174 479Z" fill="#e4e4e4" stroke="#e4e4e4"></path><path d="M142 0L133 17L165 31Z" fill="#e9e9e9" stroke="#e9e9e9"></path><path d="M0 -53L142 0L186 0Z" fill="#e7e7e7" stroke="#e7e7e7"></path><path d="M186 0L142 0L165 31Z" fill="#e5e5e5" stroke="#e5e5e5"></path><path d="M174 479L194 526L230 521Z" fill="#e9e9e9" stroke="#e9e9e9"></path><path d="M230 521L181 540L298 540Z" fill="#e7e7e7" stroke="#e7e7e7"></path><path d="M120 445L148 382L127 380Z" fill="#e5e5e5" stroke="#e5e5e5"></path><path d="M52 284L78 304L83 295Z" fill="#e9e9e9" stroke="#e9e9e9"></path><path d="M83 295L78 304L123 281Z" fill="#e7e7e7" stroke="#e7e7e7"></path><path d="M59 259L111 274L87 232Z" fill="#e8e8e8" stroke="#e8e8e8"></path><path d="M78 304L78 344L147 352Z" fill="#e7e7e7" stroke="#e7e7e7"></path><path d="M77 440L120 445L127 380Z" fill="#e4e4e4" stroke="#e4e4e4"></path><path d="M60 154L95 184L100 126Z" fill="#e8e8e8" stroke="#e8e8e8"></path><path d="M60 154L64 176L95 184Z" fill="#e8e8e8" stroke="#e8e8e8"></path><path d="M78 304L11 328L78 344Z" fill="#e3e3e3" stroke="#e3e3e3"></path><path d="M53 198L59 259L87 232Z" fill="#e7e7e7" stroke="#e7e7e7"></path><path d="M0 99L60 154L100 126Z" fill="#e3e3e3" stroke="#e3e3e3"></path><path d="M53 194L53 198L95 184Z" fill="#e4e4e4" stroke="#e4e4e4"></path><path d="M95 8L158 73L133 17Z" fill="#e8e8e8" stroke="#e8e8e8"></path><path d="M53 194L95 184L64 176Z" fill="#e5e5e5" stroke="#e5e5e5"></path><path d="M129 488L181 540L174 479Z" fill="#e8e8e8" stroke="#e8e8e8"></path><path d="M194 526L181 540L230 521Z" fill="#e4e4e4" stroke="#e4e4e4"></path><path d="M298 540L92 563L302 540Z" fill="#e9e9e9" stroke="#e9e9e9"></path><path d="M60 154L53 194L64 176Z" fill="#e8e8e8" stroke="#e8e8e8"></path><path d="M626 575L812 540L748 540Z" fill="#e7e7e7" stroke="#e7e7e7"></path><path d="M748 540L812 540L815 490Z" fill="#e7e7e7" stroke="#e7e7e7"></path><path d="M815 490L882 540L816 467Z" fill="#e7e7e7" stroke="#e7e7e7"></path><path d="M0 288L52 284L59 259Z" fill="#e5e5e5" stroke="#e5e5e5"></path><path d="M59 259L52 284L83 295Z" fill="#e4e4e4" stroke="#e4e4e4"></path><path d="M104 503L129 488L120 445Z" fill="#e9e9e9" stroke="#e9e9e9"></path><path d="M78 304L52 284L11 328Z" fill="#e9e9e9" stroke="#e9e9e9"></path><path d="M77 440L127 380L78 344Z" fill="#e8e8e8" stroke="#e8e8e8"></path><path d="M120 445L129 488L174 479Z" fill="#e5e5e5" stroke="#e5e5e5"></path><path d="M0 -53L107 0L142 0Z" fill="#e4e4e4" stroke="#e4e4e4"></path><path d="M142 0L107 0L133 17Z" fill="#e6e6e6" stroke="#e6e6e6"></path><path d="M960 190L905 185L894 272Z" fill="#e6e6e6" stroke="#e6e6e6"></path><path d="M960 190L947 182L905 185Z" fill="#e5e5e5" stroke="#e5e5e5"></path><path d="M905 185L960 145L871 142Z" fill="#e3e3e3" stroke="#e3e3e3"></path><path d="M884 102L960 17L868 95Z" fill="#e8e8e8" stroke="#e8e8e8"></path><path d="M107 0L95 8L133 17Z" fill="#e9e9e9" stroke="#e9e9e9"></path><path d="M960 299L960 190L894 272Z" fill="#e3e3e3" stroke="#e3e3e3"></path><path d="M947 182L960 145L905 185Z" fill="#e5e5e5" stroke="#e5e5e5"></path><path d="M960 299L894 272L960 315Z" fill="#e5e5e5" stroke="#e5e5e5"></path><path d="M55 441L77 440L28 385Z" fill="#e8e8e8" stroke="#e8e8e8"></path><path d="M129 488L109 540L181 540Z" fill="#e5e5e5" stroke="#e5e5e5"></path><path d="M960 315L894 272L960 332Z" fill="#e7e7e7" stroke="#e7e7e7"></path><path d="M968 169L960 145L947 182Z" fill="#e8e8e8" stroke="#e8e8e8"></path><path d="M960 332L881 372L960 341Z" fill="#e5e5e5" stroke="#e5e5e5"></path><path d="M1003 155L968 169L960 190Z" fill="#e8e8e8" stroke="#e8e8e8"></path><path d="M960 190L968 169L947 182Z" fill="#e4e4e4" stroke="#e4e4e4"></path><path d="M982 140L968 169L1003 155Z" fill="#e5e5e5" stroke="#e5e5e5"></path><path d="M960 341L881 372L960 439Z" fill="#e9e9e9" stroke="#e9e9e9"></path><path d="M1003 155L960 190L960 299Z" fill="#e4e4e4" stroke="#e4e4e4"></path><path d="M960 439L881 372L852 414Z" fill="#e8e8e8" stroke="#e8e8e8"></path><path d="M1003 155L960 299L960 315Z" fill="#e5e5e5" stroke="#e5e5e5"></path><path d="M77 440L104 503L120 445Z" fill="#e4e4e4" stroke="#e4e4e4"></path><path d="M982 140L960 72L960 145Z" fill="#e5e5e5" stroke="#e5e5e5"></path><path d="M960 145L960 72L884 102Z" fill="#e8e8e8" stroke="#e8e8e8"></path><path d="M28 385L77 440L78 344Z" fill="#e5e5e5" stroke="#e5e5e5"></path><path d="M77 440L55 441L104 503Z" fill="#e3e3e3" stroke="#e3e3e3"></path><path d="M1003 155L960 68L960 72Z" fill="#e5e5e5" stroke="#e5e5e5"></path><path d="M960 72L960 68L884 102Z" fill="#e9e9e9" stroke="#e9e9e9"></path><path d="M11 328L28 385L78 344Z" fill="#e4e4e4" stroke="#e4e4e4"></path><path d="M0 191L59 259L53 198Z" fill="#e5e5e5" stroke="#e5e5e5"></path><path d="M968 169L982 140L960 145Z" fill="#e6e6e6" stroke="#e6e6e6"></path><path d="M1003 155L960 315L1009 484Z" fill="#e5e5e5" stroke="#e5e5e5"></path><path d="M60 154L3 182L53 194Z" fill="#e7e7e7" stroke="#e7e7e7"></path><path d="M53 194L0 191L53 198Z" fill="#e5e5e5" stroke="#e5e5e5"></path><path d="M0 99L3 182L60 154Z" fill="#e8e8e8" stroke="#e8e8e8"></path><path d="M0 288L11 328L52 284Z" fill="#e8e8e8" stroke="#e8e8e8"></path><path d="M3 182L0 191L53 194Z" fill="#e7e7e7" stroke="#e7e7e7"></path><path d="M916 564L882 540L812 540Z" fill="#e9e9e9" stroke="#e9e9e9"></path><path d="M812 540L882 540L815 490Z" fill="#e8e8e8" stroke="#e8e8e8"></path><path d="M91 540L109 540L104 503Z" fill="#e5e5e5" stroke="#e5e5e5"></path><path d="M104 503L109 540L129 488Z" fill="#e5e5e5" stroke="#e5e5e5"></path><path d="M181 540L92 563L298 540Z" fill="#e4e4e4" stroke="#e4e4e4"></path><path d="M0 191L0 288L59 259Z" fill="#e8e8e8" stroke="#e8e8e8"></path><path d="M1003 155L960 17L960 68Z" fill="#e6e6e6" stroke="#e6e6e6"></path><path d="M960 68L960 17L884 102Z" fill="#e8e8e8" stroke="#e8e8e8"></path><path d="M835 0L960 0L719 -32Z" fill="#e5e5e5" stroke="#e5e5e5"></path><path d="M960 498L960 439L852 414Z" fill="#e4e4e4" stroke="#e4e4e4"></path><path d="M1009 484L960 315L960 332Z" fill="#e4e4e4" stroke="#e4e4e4"></path><path d="M0 288L0 351L11 328Z" fill="#e8e8e8" stroke="#e8e8e8"></path><path d="M11 328L0 351L28 385Z" fill="#e4e4e4" stroke="#e4e4e4"></path><path d="M28 385L0 427L55 441Z" fill="#e3e3e3" stroke="#e3e3e3"></path><path d="M65 540L91 540L104 503Z" fill="#e8e8e8" stroke="#e8e8e8"></path><path d="M916 564L900 540L882 540Z" fill="#e8e8e8" stroke="#e8e8e8"></path><path d="M882 540L900 540L852 414Z" fill="#e4e4e4" stroke="#e4e4e4"></path><path d="M65 540L104 503L55 441Z" fill="#e6e6e6" stroke="#e6e6e6"></path><path d="M109 540L92 563L181 540Z" fill="#e4e4e4" stroke="#e4e4e4"></path><path d="M3 182L0 99L0 191Z" fill="#e7e7e7" stroke="#e7e7e7"></path><path d="M4 81L0 99L100 126Z" fill="#e4e4e4" stroke="#e4e4e4"></path><path d="M1009 484L960 332L960 341Z" fill="#e3e3e3" stroke="#e3e3e3"></path><path d="M982 140L1003 155L960 72Z" fill="#e7e7e7" stroke="#e7e7e7"></path><path d="M95 8L4 81L100 126Z" fill="#e5e5e5" stroke="#e5e5e5"></path><path d="M1003 155L960 0L960 17Z" fill="#e5e5e5" stroke="#e5e5e5"></path><path d="M960 17L960 0L835 0Z" fill="#e5e5e5" stroke="#e5e5e5"></path><path d="M0 351L0 384L28 385Z" fill="#e5e5e5" stroke="#e5e5e5"></path><path d="M0 384L4 397L28 385Z" fill="#e4e4e4" stroke="#e4e4e4"></path><path d="M107 0L26 0L95 8Z" fill="#e9e9e9" stroke="#e9e9e9"></path><path d="M95 8L0 62L4 81Z" fill="#e5e5e5" stroke="#e5e5e5"></path><path d="M0 -53L26 0L107 0Z" fill="#e7e7e7" stroke="#e7e7e7"></path><path d="M0 53L0 62L95 8Z" fill="#e8e8e8" stroke="#e8e8e8"></path><path d="M4 81L0 62L0 99Z" fill="#e8e8e8" stroke="#e8e8e8"></path><path d="M65 540L92 563L91 540Z" fill="#e4e4e4" stroke="#e4e4e4"></path><path d="M91 540L92 563L109 540Z" fill="#e8e8e8" stroke="#e8e8e8"></path><path d="M26 0L0 53L95 8Z" fill="#e4e4e4" stroke="#e4e4e4"></path><path d="M916 564L923 540L900 540Z" fill="#e9e9e9" stroke="#e9e9e9"></path><path d="M900 540L960 498L852 414Z" fill="#e5e5e5" stroke="#e5e5e5"></path><path d="M0 514L65 540L55 441Z" fill="#e8e8e8" stroke="#e8e8e8"></path><path d="M960 498L978 456L960 439Z" fill="#e7e7e7" stroke="#e7e7e7"></path><path d="M960 439L978 456L960 341Z" fill="#e7e7e7" stroke="#e7e7e7"></path><path d="M-14 418L0 427L4 397Z" fill="#e8e8e8" stroke="#e8e8e8"></path><path d="M4 397L0 427L28 385Z" fill="#e7e7e7" stroke="#e7e7e7"></path><path d="M923 540L960 498L900 540Z" fill="#e8e8e8" stroke="#e8e8e8"></path><path d="M626 575L916 564L812 540Z" fill="#e7e7e7" stroke="#e7e7e7"></path><path d="M923 540L960 540L960 498Z" fill="#e7e7e7" stroke="#e7e7e7"></path><path d="M0 427L0 442L55 441Z" fill="#e4e4e4" stroke="#e4e4e4"></path><path d="M0 442L0 447L55 441Z" fill="#e7e7e7" stroke="#e7e7e7"></path><path d="M0 427L-14 418L0 442Z" fill="#e7e7e7" stroke="#e7e7e7"></path><path d="M0 442L-14 418L0 447Z" fill="#e8e8e8" stroke="#e8e8e8"></path><path d="M0 384L-14 418L4 397Z" fill="#e4e4e4" stroke="#e4e4e4"></path><path d="M0 351L-14 418L0 384Z" fill="#e8e8e8" stroke="#e8e8e8"></path><path d="M0 288L-14 418L0 351Z" fill="#e8e8e8" stroke="#e8e8e8"></path><path d="M0 191L-14 418L0 288Z" fill="#e5e5e5" stroke="#e5e5e5"></path><path d="M0 99L-14 418L0 191Z" fill="#e4e4e4" stroke="#e4e4e4"></path><path d="M0 62L-14 418L0 99Z" fill="#e4e4e4" stroke="#e4e4e4"></path><path d="M0 53L-14 418L0 62Z" fill="#e3e3e3" stroke="#e3e3e3"></path><path d="M26 0L0 0L0 53Z" fill="#e6e6e6" stroke="#e6e6e6"></path><path d="M0 53L0 0L-14 418Z" fill="#e7e7e7" stroke="#e7e7e7"></path><path d="M0 -53L0 0L26 0Z" fill="#e9e9e9" stroke="#e9e9e9"></path><path d="M960 498L977 488L978 456Z" fill="#e4e4e4" stroke="#e4e4e4"></path><path d="M978 456L1009 484L960 341Z" fill="#e4e4e4" stroke="#e4e4e4"></path><path d="M960 540L977 488L960 498Z" fill="#e7e7e7" stroke="#e7e7e7"></path><path d="M916 564L960 540L923 540Z" fill="#e9e9e9" stroke="#e9e9e9"></path><path d="M719 -32L0 -53L421 0Z" fill="#e6e6e6" stroke="#e6e6e6"></path><path d="M0 0L0 -53L-14 418Z" fill="#e5e5e5" stroke="#e5e5e5"></path><path d="M-14 418L0 514L0 447Z" fill="#e4e4e4" stroke="#e4e4e4"></path><path d="M0 447L0 514L55 441Z" fill="#e3e3e3" stroke="#e3e3e3"></path><path d="M65 540L0 540L92 563Z" fill="#e6e6e6" stroke="#e6e6e6"></path><path d="M960 540L1009 484L977 488Z" fill="#e3e3e3" stroke="#e3e3e3"></path><path d="M977 488L1009 484L978 456Z" fill="#e7e7e7" stroke="#e7e7e7"></path><path d="M-14 418L0 540L0 514Z" fill="#e4e4e4" stroke="#e4e4e4"></path><path d="M0 514L0 540L65 540Z" fill="#e4e4e4" stroke="#e4e4e4"></path></g></svg>